####
#
# OBJ File Generated by Meshlab
#
####
# Object F1.obj
#
# Vertices: 166
# Faces: 328
#
####
vn -0.426187 -5.869889 2.037634
v -0.015706 -0.048175 0.253797
vn -0.831053 -5.950407 1.527156
v -0.020767 -0.060436 0.208857
vn 0.426187 -5.869889 2.037634
v 0.015706 -0.048175 0.253797
vn 0.831053 -5.950407 1.527156
v 0.020767 -0.060436 0.208857
vn -0.618837 -6.118139 1.020654
v -0.023535 -0.065923 0.180167
vn 0.618837 -6.118139 1.020654
v 0.023535 -0.065923 0.180167
vn -0.248125 -6.242354 0.468255
v -0.029668 -0.074769 0.104667
vn 0.250208 -6.242085 0.480522
v 0.029668 -0.074769 0.104667
vn -0.365811 -5.317807 -1.943820
v -0.034789 -0.075662 0.070497
vn 0.311600 -5.324544 -1.948943
v 0.031837 -0.075941 0.070767
vn -0.265416 4.027729 2.995506
v -0.015340 0.040656 0.286777
vn -0.174185 1.220124 6.057302
v -0.015386 0.018032 0.294778
vn 0.265415 4.027730 2.995506
v 0.015340 0.040656 0.286777
vn 0.174186 1.220124 6.057302
v 0.015387 0.018032 0.294778
vn -0.533342 -0.659852 6.104211
v -0.015245 0.001397 0.295287
vn 0.533342 -0.659852 6.104211
v 0.015245 0.001397 0.295287
vn -0.537994 -2.242347 5.728409
v -0.015281 -0.011831 0.292027
vn 0.537994 -2.242347 5.728409
v 0.015281 -0.011831 0.292027
vn -0.703994 -3.259713 5.167586
v -0.015350 -0.023981 0.285867
vn 0.703994 -3.259713 5.167585
v 0.015350 -0.023981 0.285867
vn -0.524890 -4.504554 4.204988
v -0.015440 -0.033618 0.277797
vn 0.524890 -4.504554 4.204988
v 0.015440 -0.033618 0.277797
vn -0.765756 -5.129122 3.264328
v -0.015568 -0.042634 0.266247
vn 0.765756 -5.129123 3.264328
v 0.015568 -0.042634 0.266247
vn 1.304409 -0.081670 -2.298666
v 0.088336 0.002737 0.045467
vn 6.241885 -0.397962 0.387828
v 0.086214 -0.020914 0.082577
vn 6.189441 0.673063 0.446814
v 0.084287 0.014054 0.109897
vn 0.914325 -0.196004 -1.653501
v 0.087893 0.022754 0.040307
vn 6.198606 -0.530126 0.646484
v 0.083205 -0.019013 0.123577
vn 6.156509 0.724723 0.665883
v 0.078280 0.014054 0.176517
vn 6.161900 -0.685872 0.730982
v 0.078255 -0.011915 0.176077
vn 6.154003 -0.633744 0.828358
v 0.075176 -0.006400 0.204727
vn 6.144381 0.403990 1.045208
v 0.070431 0.014054 0.242977
vn 6.157844 -0.276189 1.069830
v 0.070228 0.004285 0.244517
vn -1.627410 3.990899 2.618549
v -0.043010 0.040656 0.277767
vn -0.988226 3.886520 2.865537
v -0.031299 0.040656 0.283977
vn -0.265732 0.405880 -1.381214
v -0.034310 0.069054 0.022707
vn -0.594347 6.226316 0.020768
v -0.027458 0.069054 0.129427
vn -0.650539 6.214889 0.035254
v -0.031718 0.069054 0.072907
vn 0.603628 3.690243 2.864633
v -0.023339 0.069054 0.173087
vn 1.086136 0.475105 -1.775896
v 0.087841 -0.029406 0.037507
vn 5.413849 -2.616466 1.011372
v 0.072595 -0.035439 0.179757
vn 5.724984 -0.366083 2.070565
v 0.068218 0.004974 0.255207
vn 6.042546 -1.411458 0.537292
v 0.083173 -0.032385 0.106437
vn 5.645594 -1.741236 1.593954
v 0.067917 -0.008969 0.248387
vn 5.182692 -3.176305 0.600299
v 0.079092 -0.043967 0.106737
vn 0.573199 -0.180802 -1.469768
v 0.085391 -0.038703 0.033537
vn 4.320378 -3.772964 2.046943
v 0.053519 -0.032098 0.253757
vn 4.023100 -4.502004 1.187504
v 0.057396 -0.054171 0.181567
vn 2.712879 -3.744450 -1.873971
v 0.077285 -0.053178 0.048007
vn 2.223978 -4.379426 -1.774127
v 0.066517 -0.064024 0.058857
vn 2.876835 -4.864618 2.358717
v 0.042363 -0.040475 0.254917
vn 3.147432 -5.192468 0.619204
v 0.053492 -0.069609 0.106177
vn 2.315747 -5.562296 1.221879
v 0.047104 -0.060665 0.181667
vn 1.351296 -5.002402 -1.826240
v 0.053225 -0.071693 0.066527
vn 1.512425 -5.454895 2.303993
v 0.029481 -0.045952 0.254927
vn 1.285110 -6.045643 0.528823
v 0.041928 -0.073698 0.105527
vn 5.538341 1.093377 2.242051
v 0.066291 0.020707 0.258687
vn 5.848986 1.612134 1.121982
v 0.068703 0.027790 0.242757
vn 4.652720 0.267447 3.797657
v 0.057031 0.014439 0.276187
vn 5.364201 2.851169 1.142709
v 0.063629 0.040656 0.242087
vn 4.718172 3.158431 2.225131
v 0.056465 0.043836 0.258917
vn 4.720128 -2.186373 2.963516
v 0.057866 -0.016441 0.266557
vn 4.311400 2.172610 3.662432
v 0.054040 0.032396 0.273187
vn 4.669650 3.948890 1.033896
v 0.058062 0.048936 0.241347
vn 3.004450 0.670577 5.109828
v 0.045161 0.016270 0.286417
vn 3.293864 -1.355293 4.763677
v 0.045269 -0.005801 0.284667
vn 3.268816 -3.346615 3.793387
v 0.045945 -0.025008 0.273407
vn -0.441329 2.857779 0.881776
v 0.051296 0.048226 0.261407
vn 1.627410 3.990899 2.618549
v 0.043010 0.040656 0.277767
vn -0.818250 2.194484 0.684341
v 0.051100 0.056062 0.240427
vn 0.988226 3.886519 2.865537
v 0.031299 0.040656 0.283977
vn 1.117632 1.052484 5.749563
v 0.023102 0.017985 0.294537
vn 1.817119 -1.670330 5.431822
v 0.030907 -0.008464 0.290787
vn 1.753839 -3.983578 4.107573
v 0.031378 -0.030930 0.277287
vn 0.594347 6.226316 0.020768
v 0.027458 0.069054 0.129427
vn -0.603626 3.690240 2.864633
v 0.023339 0.069054 0.173087
vn -1.009249 3.618603 2.269105
v 0.033444 0.068020 0.178457
vn -1.020481 2.688775 1.149379
v 0.044978 0.063292 0.200417
vn 2.372429 5.686143 0.181815
v 0.048487 0.064867 0.131247
vn 0.788961 0.559498 -1.623802
v 0.054325 0.065153 0.030907
vn 0.265732 0.405880 -1.381214
v 0.034310 0.069054 0.022707
vn 0.650539 6.214890 0.035254
v 0.031718 0.069054 0.072907
vn 0.734377 0.781933 -1.986459
v 0.066433 0.058342 0.034737
vn 4.346457 4.343478 0.383015
v 0.066264 0.052945 0.132787
vn 0.508334 0.364199 -1.527349
v 0.075701 0.049794 0.033277
vn 5.667135 2.338675 0.489453
v 0.078142 0.035101 0.133807
vn 0.739418 -0.029065 -1.456656
v 0.083311 0.038034 0.035257
vn -1.434088 -1.154522 -4.758016
v 0.066367 -0.051137 0.045967
vn -0.395480 -0.514529 -4.809998
v 0.051367 -0.053979 0.048807
vn 0.395584 -0.514668 -4.809853
v -0.051367 -0.053979 0.048807
vn 0.483973 2.732137 3.038945
v -0.012389 0.040656 0.171377
vn 2.137664 2.478593 2.057435
v -0.037167 0.040656 0.182237
vn -0.483972 2.732138 3.038945
v 0.012389 0.040656 0.171377
vn -2.137587 2.478816 2.057610
v 0.037167 0.040656 0.182237
vn 2.909122 2.769163 1.077883
v -0.043874 0.040656 0.195367
vn -2.909236 2.769437 1.077696
v 0.043874 0.040656 0.195367
vn 3.102940 2.948833 0.437241
v -0.049441 0.040656 0.223017
vn -3.102940 2.948833 0.437241
v 0.049441 0.040656 0.223017
vn 3.124201 3.055415 -0.065455
v -0.051296 0.040656 0.248837
vn -3.124201 3.055415 -0.065455
v 0.051296 0.040656 0.248837
vn -0.899428 -4.237156 -4.138990
v 0.051367 0.056562 0.043917
vn 0.899428 -4.237156 -4.138990
v -0.051367 0.056562 0.043917
vn -1.126615 -2.166850 -5.285111
v 0.051367 0.028243 0.064867
vn 1.126615 -2.166850 -5.285111
v -0.051367 0.028243 0.064867
vn -1.239159 0.314842 -5.644165
v 0.051367 -0.006515 0.070567
vn 1.239159 0.314842 -5.644165
v -0.051367 -0.006515 0.070567
vn -1.050763 2.744290 -5.205768
v 0.051367 -0.040043 0.059777
vn 1.050757 2.744288 -5.205773
v -0.051367 -0.040043 0.059777
vn -3.189024 -1.999338 -4.501848
v 0.072580 0.028326 0.055167
vn -3.290328 1.188049 -4.685825
v 0.072580 -0.019757 0.059267
vn 3.290329 1.188047 -4.685826
v -0.072580 -0.019757 0.059267
vn 3.189024 -1.999338 -4.501848
v -0.072580 0.028326 0.055167
vn -1.304408 -0.081670 -2.298666
v -0.088336 0.002737 0.045467
vn 1.009288 3.618696 2.269037
v -0.033444 0.068020 0.178457
vn 1.434085 -1.154526 -4.758028
v -0.066367 -0.051137 0.045967
vn -6.189441 0.673063 0.446814
v -0.084287 0.014054 0.109897
vn -0.739418 -0.029065 -1.456656
v -0.083311 0.038034 0.035257
vn -5.667134 2.338675 0.489453
v -0.078142 0.035101 0.133807
vn 1.020417 2.688894 1.149519
v -0.044978 0.063292 0.200417
vn -0.508334 0.364199 -1.527349
v -0.075701 0.049794 0.033277
vn -4.346457 4.343478 0.383015
v -0.066264 0.052945 0.132787
vn -0.734377 0.781933 -1.986459
v -0.066433 0.058342 0.034737
vn -0.788961 0.559498 -1.623801
v -0.054325 0.065153 0.030907
vn -2.372429 5.686143 0.181815
v -0.048487 0.064867 0.131247
vn -1.753839 -3.983579 4.107573
v -0.031378 -0.030930 0.277287
vn -1.817119 -1.670330 5.431822
v -0.030907 -0.008464 0.290787
vn -1.117631 1.052484 5.749563
v -0.023102 0.017985 0.294537
vn 0.818249 2.194484 0.684341
v -0.051100 0.056062 0.240427
vn 0.441329 2.857779 0.881776
v -0.051296 0.048226 0.261407
vn -3.268816 -3.346615 3.793387
v -0.045945 -0.025008 0.273407
vn -3.293864 -1.355293 4.763677
v -0.045269 -0.005801 0.284667
vn -3.004450 0.670577 5.109828
v -0.045161 0.016270 0.286417
vn -4.669650 3.948890 1.033896
v -0.058062 0.048936 0.241347
vn -4.311400 2.172610 3.662432
v -0.054040 0.032396 0.273187
vn -4.720128 -2.186373 2.963517
v -0.057866 -0.016441 0.266557
vn -4.652720 0.267447 3.797657
v -0.057031 0.014439 0.276187
vn -4.718172 3.158432 2.225131
v -0.056465 0.043836 0.258917
vn -5.364201 2.851169 1.142709
v -0.063629 0.040656 0.242087
vn -5.848986 1.612134 1.121982
v -0.068703 0.027790 0.242757
vn -5.538341 1.093377 2.242051
v -0.066291 0.020707 0.258687
vn -1.284464 -6.045661 0.532536
v -0.041928 -0.073698 0.105527
vn -1.512425 -5.454895 2.303992
v -0.029481 -0.045952 0.254927
vn -1.365850 -4.999167 -1.836416
v -0.053225 -0.071693 0.066527
vn -2.315747 -5.562296 1.221879
v -0.047104 -0.060665 0.181667
vn -3.147432 -5.192468 0.619204
v -0.053492 -0.069609 0.106177
vn -2.876835 -4.864618 2.358717
v -0.042363 -0.040475 0.254917
vn -2.223953 -4.379416 -1.774138
v -0.066517 -0.064024 0.058857
vn -2.712883 -3.744452 -1.873968
v -0.077285 -0.053178 0.048007
vn -4.023100 -4.502004 1.187504
v -0.057396 -0.054171 0.181567
vn -4.320378 -3.772964 2.046943
v -0.053519 -0.032098 0.253757
vn -0.573195 -0.180804 -1.469764
v -0.085391 -0.038703 0.033537
vn -5.182692 -3.176305 0.600299
v -0.079092 -0.043967 0.106737
vn -5.645594 -1.741236 1.593954
v -0.067917 -0.008969 0.248387
vn -6.042546 -1.411458 0.537292
v -0.083173 -0.032385 0.106437
vn -5.724984 -0.366083 2.070565
v -0.068218 0.004974 0.255207
vn -6.198606 -0.530126 0.646484
v -0.083205 -0.019013 0.123577
vn -5.413849 -2.616466 1.011372
v -0.072595 -0.035439 0.179757
vn -1.086136 0.475105 -1.775896
v -0.087841 -0.029406 0.037507
vn -6.157843 -0.276189 1.069830
v -0.070228 0.004285 0.244517
vn -6.144381 0.403990 1.045208
v -0.070431 0.014054 0.242977
vn -6.154003 -0.633744 0.828358
v -0.075176 -0.006400 0.204727
vn -6.161900 -0.685872 0.730982
v -0.078255 -0.011915 0.176077
vn -6.156509 0.724723 0.665883
v -0.078280 0.014054 0.176517
vn -0.914325 -0.196004 -1.653501
v -0.087893 0.022754 0.040307
vn -6.241885 -0.397962 0.387828
v -0.086214 -0.020914 0.082577
# 166 vertices, 0 vertices normals

f 1//1 2//2 3//3
f 4//4 3//3 2//2
f 2//2 5//5 4//4
f 6//6 4//4 5//5
f 5//5 7//7 6//6
f 8//8 6//6 7//7
f 7//7 9//9 8//8
f 10//10 8//8 9//9
f 11//11 12//12 13//13
f 14//14 13//13 12//12
f 12//12 15//15 14//14
f 16//16 14//14 15//15
f 15//15 17//17 16//16
f 18//18 16//16 17//17
f 17//17 19//19 18//18
f 20//20 18//18 19//19
f 19//19 21//21 20//20
f 22//22 20//20 21//21
f 21//21 23//23 22//22
f 24//24 22//22 23//23
f 23//23 1//1 24//24
f 24//24 1//1 3//3
f 27//27 26//26 25//25
f 28//28 27//27 25//25
f 29//29 26//26 27//27
f 30//30 31//31 29//29
f 27//27 30//30 29//29
f 32//32 31//31 30//30
f 30//30 33//33 32//32
f 34//34 32//32 33//33
f 41//41 25//25 26//26
f 42//42 29//29 31//31
f 44//44 41//41 26//26
f 46//46 47//47 41//41
f 44//44 46//46 41//41
f 46//46 44//44 42//42
f 45//45 48//48 42//42
f 49//49 42//42 48//48
f 42//42 49//49 46//46
f 46//46 50//50 47//47
f 51//51 50//50 46//46
f 48//48 52//52 49//49
f 53//53 46//46 49//49
f 46//46 53//53 51//51
f 49//49 54//54 53//53
f 54//54 49//49 52//52
f 55//55 51//51 53//53
f 54//54 52//52 56//56
f 57//57 10//10 55//55
f 53//53 57//57 55//55
f 57//57 53//53 54//54
f 54//54 56//56 3//3
f 54//54 3//3 4//4
f 6//6 54//54 4//4
f 57//57 8//8 10//10
f 57//57 6//6 8//8
f 58//58 34//34 33//33
f 43//43 34//34 58//58
f 33//33 59//59 58//58
f 60//60 43//43 58//58
f 59//59 61//61 58//58
f 62//62 58//58 61//61
f 48//48 45//45 63//63
f 61//61 65//65 62//62
f 66//66 60//60 64//64
f 60//60 67//67 63//63
f 68//68 63//63 67//67
f 63//63 68//68 48//48
f 69//69 70//70 64//64
f 71//71 62//62 65//65
f 64//64 70//70 66//66
f 52//52 48//48 68//68
f 70//70 72//72 66//66
f 66//66 73//73 67//67
f 73//73 66//66 72//72
f 67//67 74//74 68//68
f 74//74 67//67 73//73
f 75//75 68//68 74//74
f 68//68 75//75 52//52
f 56//56 52//52 75//75
f 14//14 73//73 72//72
f 18//18 74//74 16//16
f 74//74 18//18 75//75
f 72//72 13//13 14//14
f 75//75 18//18 20//20
f 22//22 75//75 20//20
f 75//75 22//22 56//56
f 56//56 22//22 24//24
f 3//3 56//56 24//24
f 76//76 77//77 78//78
f 80//80 81//81 82//82
f 80//80 82//82 83//83
f 80//80 83//83 76//76
f 84//84 81//81 80//80
f 85//85 86//86 84//84
f 80//80 85//85 84//84
f 80//80 79//79 71//71
f 85//85 80//80 71//71
f 71//71 65//65 85//85
f 85//85 65//65 61//61
f 87//87 85//85 61//61
f 87//87 88//88 86//86
f 85//85 87//87 86//86
f 61//61 59//59 87//87
f 87//87 59//59 33//33
f 87//87 33//33 30//30
f 27//27 87//87 30//30
f 89//89 50//50 51//51
f 89//89 51//51 55//55
f 90//90 89//89 55//55
f 55//55 10//10 90//90
f 90//90 10//10 9//9
f 91//91 90//90 9//9
f 92//92 93//93 94//94
f 95//95 94//94 93//93
f 93//93 96//96 95//95
f 97//97 95//95 96//96
f 96//96 98//98 97//97
f 99//99 97//97 98//98
f 98//98 100//100 99//99
f 101//101 99//99 100//100
f 100//100 35//35 101//101
f 70//70 101//101 35//35
f 35//35 36//36 70//70
f 72//72 70//70 36//36
f 13//13 72//72 11//11
f 37//37 39//39 82//82
f 83//83 82//82 39//39
f 39//39 38//38 83//83
f 76//76 83//83 38//38
f 38//38 40//40 76//76
f 76//76 40//40 77//77
f 99//99 79//79 97//97
f 79//79 95//95 97//97
f 71//71 79//79 99//99
f 99//99 101//101 71//71
f 94//94 95//95 77//77
f 102//102 104//104 103//103
f 105//105 103//103 104//104
f 104//104 106//106 105//105
f 107//107 105//105 106//106
f 106//106 108//108 107//107
f 109//109 107//107 108//108
f 108//108 90//90 109//109
f 91//91 109//109 90//90
f 110//110 86//86 88//88
f 111//111 110//110 25//25
f 81//81 84//84 102//102
f 102//102 82//82 81//81
f 84//84 86//86 110//110
f 102//102 84//84 110//110
f 102//102 110//110 104//104
f 106//106 104//104 110//110
f 106//106 110//110 111//111
f 111//111 108//108 106//106
f 111//111 89//89 108//108
f 90//90 108//108 89//89
f 110//110 88//88 28//28
f 25//25 110//110 28//28
f 111//111 25//25 41//41
f 111//111 41//41 47//47
f 11//11 72//72 36//36
f 60//60 66//66 67//67
f 34//34 43//43 45//45
f 32//32 34//34 45//45
f 32//32 45//45 42//42
f 31//31 32//32 42//42
f 29//29 42//42 44//44
f 29//29 44//44 26//26
f 69//69 71//71 101//101
f 69//69 101//101 70//70
f 62//62 71//71 69//69
f 62//62 69//69 64//64
f 58//58 62//62 64//64
f 58//58 64//64 60//60
f 6//6 57//57 54//54
f 16//16 74//74 73//73
f 14//14 16//16 73//73
f 27//27 88//88 87//87
f 27//27 28//28 88//88
f 117//117 118//118 165//165
f 117//117 119//119 118//118
f 12//12 128//128 15//15
f 15//15 128//128 127//127
f 5//5 145//145 142//142
f 141//141 137//137 135//135
f 141//141 135//135 138//138
f 138//138 135//135 130//130
f 138//138 130//130 129//129
f 130//130 35//35 100//100
f 130//130 100//100 129//129
f 157//157 155//155 158//158
f 163//163 158//158 162//162
f 162//162 158//158 154//154
f 162//162 154//154 160//160
f 160//160 154//154 156//156
f 137//137 132//132 133//133
f 112//112 152//152 159//159
f 112//112 159//159 114//114
f 114//114 165//165 113//113
f 113//113 165//165 118//118
f 91//91 116//116 109//109
f 112//112 109//109 116//116
f 112//112 107//107 109//109
f 107//107 112//112 113//113
f 107//107 113//113 105//105
f 103//103 105//105 113//113
f 103//103 113//113 123//123
f 123//123 113//113 121//121
f 103//103 124//124 37//37
f 124//124 103//103 123//123
f 112//112 114//114 113//113
f 113//113 118//118 121//121
f 92//92 40//40 93//93
f 115//115 93//93 40//40
f 98//98 129//129 100//100
f 129//129 98//98 120//120
f 120//120 96//96 115//115
f 93//93 115//115 96//96
f 98//98 96//96 120//120
f 144//144 91//91 9//9
f 91//91 144//144 116//116
f 116//116 144//144 148//148
f 116//116 148//148 149//149
f 117//117 164//164 119//119
f 119//119 164//164 161//161
f 119//119 161//161 140//140
f 139//139 119//119 140//140
f 122//122 121//121 119//119
f 119//119 121//121 118//118
f 119//119 139//139 122//122
f 122//122 139//139 134//134
f 129//129 122//122 134//134
f 122//122 129//129 125//125
f 125//125 129//129 120//120
f 125//125 123//123 122//122
f 122//122 123//123 121//121
f 123//123 125//125 124//124
f 125//125 38//38 39//39
f 125//125 39//39 37//37
f 125//125 37//37 124//124
f 38//38 115//115 40//40
f 1//1 23//23 143//143
f 143//143 23//23 21//21
f 126//126 143//143 21//21
f 21//21 19//19 126//126
f 126//126 19//19 17//17
f 36//36 12//12 11//11
f 127//127 126//126 17//17
f 17//17 15//15 127//127
f 12//12 36//36 128//128
f 143//143 126//126 147//147
f 131//131 147//147 126//126
f 126//126 127//127 131//131
f 127//127 128//128 132//132
f 132//132 131//131 127//127
f 128//128 36//36 133//133
f 133//133 132//132 128//128
f 35//35 133//133 36//36
f 147//147 131//131 151//151
f 135//135 133//133 35//35
f 129//129 134//134 138//138
f 130//130 135//135 35//35
f 136//136 151//151 131//131
f 131//131 132//132 136//136
f 137//137 136//136 132//132
f 133//133 135//135 137//137
f 139//139 138//138 134//134
f 151//151 136//136 154//154
f 138//138 139//139 141//141
f 140//140 141//141 139//139
f 137//137 141//141 156//156
f 161//161 141//141 140//140
f 156//156 141//141 160//160
f 141//141 161//161 160//160
f 142//142 7//7 5//5
f 142//142 9//9 7//7
f 5//5 2//2 145//145
f 2//2 1//1 145//145
f 145//145 1//1 143//143
f 142//142 145//145 146//146
f 146//146 144//144 142//142
f 142//142 144//144 9//9
f 145//145 143//143 147//147
f 144//144 146//146 148//148
f 145//145 147//147 150//150
f 150//150 146//146 145//145
f 153//153 148//148 146//146
f 146//146 150//150 153//153
f 151//151 150//150 147//147
f 148//148 153//153 149//149
f 153//153 152//152 149//149
f 158//158 153//153 150//150
f 150//150 151//151 158//158
f 154//154 158//158 151//151
f 153//153 158//158 155//155
f 155//155 159//159 153//153
f 153//153 159//159 152//152
f 157//157 166//166 155//155
f 155//155 166//166 159//159
f 158//158 163//163 157//157
f 159//159 166//166 114//114
f 160//160 161//161 162//162
f 164//164 162//162 161//161
f 162//162 164//164 163//163
f 117//117 157//157 164//164
f 164//164 157//157 163//163
f 157//157 117//117 166//166
f 165//165 114//114 117//117
f 117//117 114//114 166//166
f 92//92 94//94 40//40
f 94//94 77//77 40//40
f 78//78 77//77 95//95
f 78//78 95//95 79//79
f 47//47 89//89 111//111
f 47//47 50//50 89//89
f 116//116 149//149 152//152
f 112//112 116//116 152//152
f 136//136 156//156 154//154
f 136//136 137//137 156//156
f 43//43 60//60 63//63
f 43//43 63//63 45//45
f 76//76 78//78 80//80
f 78//78 79//79 80//80
f 120//120 115//115 125//125
f 38//38 125//125 115//115
f 82//82 102//102 103//103
f 37//37 82//82 103//103
# 328 faces, 0 coords texture

# End of File