####
#
# OBJ File Generated by Meshlab
#
####
# Object TH1_z.obj
#
# Vertices: 59
# Faces: 113
#
####
vn -0.903789 -5.396676 2.440955
v -0.019499 -0.072561 0.290226
vn 1.166507 -3.773445 4.129707
v 0.033361 -0.046823 0.328132
vn 0.795528 -5.510096 2.329827
v 0.019499 -0.072554 0.290220
vn -0.846991 -6.036032 1.086682
v -0.038701 -0.086518 0.225917
vn 1.257928 -5.845616 1.220754
v 0.038692 -0.086489 0.226053
vn -0.787263 -6.118520 0.510297
v -0.028350 -0.096435 0.156600
vn 0.786238 -6.118821 0.514243
v 0.028350 -0.096435 0.156600
vn -0.664046 -5.309450 -1.699206
v -0.039395 -0.097087 0.110841
vn 0.591685 -5.382462 -1.658161
v 0.038552 -0.097183 0.110928
vn -0.625296 3.133571 -2.656509
v -0.046852 0.088639 0.005598
vn -0.798457 6.166624 0.340728
v -0.028536 0.084063 0.150345
vn 0.468707 3.191970 -2.705482
v 0.033888 0.089768 0.005659
vn 0.751496 6.180267 0.318950
v 0.028536 0.084063 0.150345
vn -0.732948 6.180091 0.361238
v -0.026137 0.081917 0.191233
vn 0.680477 6.192391 0.366053
v 0.026137 0.081917 0.191233
vn -1.234244 5.598389 1.477619
v -0.036064 0.075687 0.274324
vn 1.540853 5.288187 1.694440
v 0.036112 0.075679 0.274331
vn 6.223287 0.486820 0.155589
v 0.105851 0.011121 0.109071
vn 3.327451 -2.711918 -1.700543
v 0.105211 -0.040201 0.047026
vn 3.134317 -0.152998 0.141447
v 0.107388 -0.027850 0.032860
vn 2.138341 -0.578499 -2.199963
v 0.108910 -0.000109 0.000947
vn 6.202885 -0.639920 0.317894
v 0.104490 -0.022741 0.134070
vn 6.237078 0.235714 0.520210
v 0.100955 0.006743 0.192526
vn 5.655846 -1.757448 0.972960
v 0.097371 -0.028804 0.220093
vn 5.303801 0.820300 1.805076
v 0.092302 0.019056 0.276576
vn -6.228587 0.467376 0.331941
v -0.103403 0.008936 0.150802
vn -5.895832 -0.841707 1.055788
v -0.098131 -0.012406 0.229213
vn -5.356387 0.626509 1.806243
v -0.087624 0.022949 0.292946
vn -6.204748 -0.593561 0.371514
v -0.103040 -0.021197 0.157972
vn -3.136343 -2.587148 -1.781096
v -0.105345 -0.039706 0.046580
vn -2.122166 -0.573942 -2.140229
v -0.108786 -0.001153 0.001845
vn -3.641379 4.377416 0.291096
v -0.079325 0.070325 0.152893
vn -2.151442 2.289895 -2.299679
v -0.075543 0.077091 0.006025
vn -3.493242 3.485528 1.938149
v -0.075588 0.054459 0.287970
vn -5.790411 2.008218 0.252354
v -0.099974 0.032087 0.151810
vn -4.130281 -3.400832 2.256384
v -0.066345 -0.050447 0.288445
vn -5.510670 -2.525327 0.488790
v -0.097255 -0.050209 0.159637
vn -2.690284 -3.847095 -1.770519
v -0.091449 -0.066324 0.075994
vn -3.291727 -5.025384 0.392798
v -0.069671 -0.083641 0.160206
vn -3.378651 -4.126694 1.166673
v -0.071580 -0.078263 0.227565
vn -1.804361 -4.901920 -1.574822
v -0.063266 -0.090133 0.104580
vn -3.907811 0.799890 3.518055
v -0.076510 0.017014 0.315554
vn -4.107798 -1.660781 3.709456
v -0.061463 -0.021670 0.324660
vn -1.355862 -0.298848 5.117946
v -0.028973 -0.006331 0.348524
vn -1.877142 -3.465995 3.862711
v -0.041487 -0.044051 0.327330
vn 3.453959 -2.652144 3.923548
v 0.058954 -0.033657 0.323046
vn 4.194136 -0.056638 3.002778
v 0.076249 -0.009675 0.316266
vn 1.525609 0.025868 4.759574
v 0.030833 -0.005931 0.349493
vn 3.650508 -3.744634 1.985298
v 0.065296 -0.056326 0.289562
vn 5.373274 -2.687183 0.670339
v 0.097248 -0.050201 0.159765
vn 2.535225 -3.858779 -1.794402
v 0.090318 -0.067785 0.077309
vn 3.380175 -4.874958 0.641553
v 0.069663 -0.083632 0.160340
vn 3.639415 -4.568733 1.132843
v 0.065398 -0.075345 0.226070
vn 1.791180 -4.992521 -1.532707
v 0.061165 -0.091102 0.105452
vn 3.653984 4.174116 0.304105
v 0.084785 0.070081 0.153537
vn 1.981555 2.196489 -2.281071
v 0.079923 0.073997 0.004828
vn 3.872252 3.403942 2.211687
v 0.077882 0.049157 0.276816
vn 5.928664 1.648842 0.270784
v 0.101438 0.032498 0.151830
vn 0.225757 3.242004 3.791631
v 0.000000 0.052456 0.334023
# 59 vertices, 0 vertices normals

f 2//2 1//1 3//3
f 1//1 4//4 3//3
f 5//5 3//3 4//4
f 4//4 6//6 5//5
f 7//7 5//5 6//6
f 6//6 8//8 7//7
f 9//9 7//7 8//8
f 10//10 11//11 12//12
f 13//13 12//12 11//11
f 11//11 14//14 13//13
f 15//15 13//13 14//14
f 14//14 16//16 15//15
f 17//17 15//15 16//16
f 18//18 19//19 20//20
f 21//21 18//18 20//20
f 22//22 19//19 18//18
f 18//18 23//23 22//22
f 24//24 22//22 23//23
f 23//23 25//25 24//24
f 26//26 27//27 28//28
f 29//29 27//27 26//26
f 30//30 29//29 26//26
f 26//26 31//31 30//30
f 32//32 16//16 14//14
f 11//11 32//32 14//14
f 32//32 11//11 10//10
f 10//10 33//33 32//32
f 34//34 16//16 32//32
f 28//28 34//34 32//32
f 32//32 33//33 31//31
f 35//35 32//32 31//31
f 32//32 35//35 28//28
f 35//35 31//31 26//26
f 35//35 26//26 28//28
f 36//36 28//28 27//27
f 37//37 29//29 30//30
f 29//29 37//37 27//27
f 30//30 38//38 37//37
f 39//39 37//37 38//38
f 27//27 40//40 36//36
f 38//38 41//41 39//39
f 1//1 36//36 40//40
f 4//4 1//1 40//40
f 4//4 40//40 39//39
f 39//39 41//41 8//8
f 6//6 39//39 8//8
f 39//39 6//6 4//4
f 42//42 43//43 44//44
f 45//45 44//44 43//43
f 28//28 43//43 42//42
f 43//43 28//28 36//36
f 45//45 43//43 36//36
f 36//36 1//1 45//45
f 34//34 28//28 42//42
f 46//46 47//47 48//48
f 48//48 44//44 45//45
f 2//2 48//48 45//45
f 48//48 2//2 46//46
f 45//45 1//1 2//2
f 33//33 10//10 31//31
f 25//25 49//49 24//24
f 50//50 22//22 24//24
f 22//22 50//50 19//19
f 51//51 19//19 50//50
f 52//52 50//50 24//24
f 50//50 52//52 51//51
f 53//53 24//24 49//49
f 24//24 53//53 52//52
f 52//52 54//54 51//51
f 49//49 3//3 53//53
f 53//53 5//5 52//52
f 5//5 53//53 3//3
f 7//7 9//9 54//54
f 52//52 7//7 54//54
f 7//7 52//52 5//5
f 55//55 56//56 12//12
f 55//55 12//12 13//13
f 17//17 57//57 55//55
f 57//57 25//25 55//55
f 21//21 56//56 55//55
f 55//55 58//58 21//21
f 58//58 55//55 25//25
f 58//58 25//25 23//23
f 18//18 58//58 23//23
f 58//58 18//18 21//21
f 59//59 57//57 17//17
f 48//48 47//47 59//59
f 17//17 16//16 59//59
f 44//44 48//48 59//59
f 42//42 44//44 59//59
f 59//59 16//16 34//34
f 59//59 34//34 42//42
f 25//25 57//57 47//47
f 59//59 47//47 57//57
f 49//49 25//25 47//47
f 47//47 46//46 49//49
f 46//46 2//2 49//49
f 2//2 3//3 49//49
f 31//31 10//10 12//12
f 31//31 12//12 56//56
f 31//31 56//56 21//21
f 21//21 19//19 51//51
f 21//21 51//51 54//54
f 21//21 54//54 9//9
f 21//21 9//9 8//8
f 21//21 8//8 41//41
f 21//21 41//41 38//38
f 21//21 38//38 30//30
f 21//21 30//30 31//31
f 15//15 55//55 13//13
f 15//15 17//17 55//55
f 37//37 39//39 40//40
f 27//27 37//37 40//40
# 113 faces, 0 coords texture

# End of File