<?xml version="1.0" encoding="utf-8"?>
<!-- Generator: Adobe Illustrator 16.0.0, SVG Export Plug-In . SVG Version: 6.00 Build 0)  -->
<!DOCTYPE svg PUBLIC "-//W3C//DTD SVG 1.1//EN" "http://www.w3.org/Graphics/SVG/1.1/DTD/svg11.dtd">
<svg version="1.1" id="图层_1" xmlns="http://www.w3.org/2000/svg" xmlns:xlink="http://www.w3.org/1999/xlink" x="0px" y="0px"
	 width="262px" height="260px" viewBox="0 0 262 260" enable-background="new 0 0 262 260" xml:space="preserve">
<path fill="#FFFFFF" stroke="#000000" stroke-miterlimit="10" d="M114.698,113V19c0-6.627,5.373-12,12-12h10c6.628,0,12,5.373,12,12
	v94c0,0,94.001,0,94.001,0c6.627,0,12,5.373,12,12v10c0,6.628-5.373,12-12,12c0,0-94,0-94.001,0v94c0,6.627-5.373,12-12,12h-10
	c-6.627,0-12-5.373-12-12c0,0,0-94,0-94h-94c-6.627,0-12-5.373-12-12v-10c0-6.627,5.373-12,12-12
	C20.699,113,114.699,113,114.698,113z"/>
</svg>
