<?xml version="1.0" encoding="utf-8"?>
<!-- Generator: Adobe Illustrator 16.0.0, SVG Export Plug-In . SVG Version: 6.00 Build 0)  -->
<!DOCTYPE svg PUBLIC "-//W3C//DTD SVG 1.1//EN" "http://www.w3.org/Graphics/SVG/1.1/DTD/svg11.dtd">
<svg version="1.1" id="图层_1" xmlns="http://www.w3.org/2000/svg" xmlns:xlink="http://www.w3.org/1999/xlink" x="0px" y="0px"
	 width="392px" height="414px" viewBox="70.833 -172.835 392 414" enable-background="new 70.833 -172.835 392 414"
	 xml:space="preserve">
<path fill="#FFFFFF" stroke="#000000" stroke-miterlimit="10" d="M283.83-76.835v94h94.002h66.002c6.627,0,12,5.373,12,12v9.999
	c0,6.629-5.373,12-12,12c0,0-38.297,0-66.002,0c-15.701,0-94,0-94.002,0v94.001v66c0,6.627-5.373,12-11.998,12h-10
	c-6.627,0-12-5.373-12-12v-66V51.164h-93.999h-66c-6.627,0-12-5.373-12-12v-9.999c0-6.627,5.373-12,12-12c0.001,0,38.296,0,66,0
	c15.701,0,94.001,0,93.999,0v-94v-66c0-6.627,5.373-12,12-12h10c6.627,0,11.998,5.373,11.998,12V-76.835z"/>
</svg>
