<?xml version="1.0" encoding="utf-8"?>
<!-- Generator: Adobe Illustrator 16.0.0, SVG Export Plug-In . SVG Version: 6.00 Build 0)  -->
<!DOCTYPE svg PUBLIC "-//W3C//DTD SVG 1.1//EN" "http://www.w3.org/Graphics/SVG/1.1/DTD/svg11.dtd">
<svg version="1.1" id="图层_1" xmlns="http://www.w3.org/2000/svg" xmlns:xlink="http://www.w3.org/1999/xlink" x="0px" y="0px"
	 width="209.333px" height="261.33px" viewBox="0 0 209.333 261.33" enable-background="new 0 0 209.333 261.33"
	 xml:space="preserve">
<g>
	<path fill="none" stroke="#000000" stroke-miterlimit="10" d="M129.121,248.367c-10.395,6.009-19.984,9.009-28.759,9.009
		c-6.237,0-10.455-1.787-12.647-5.371c-2.198-3.578-3.292-10.449-3.292-20.616c0-9.47,0.574-25.176,1.732-47.124
		c1.153-21.943,1.732-52.782,1.732-92.516c0-21.483-0.232-39.036-0.692-52.668c-41.58-0.227-67.107,2.772-76.577,9.009
		c-5.084-9.236-7.623-16.746-7.623-22.522c0-5.079,2.079-8.603,6.237-10.568c4.158-1.96,11.315-2.945,21.483-2.945
		c8.775,0,20.324,0.58,34.649,1.732c11.548,0.926,30.605,1.386,57.173,1.386c39.268,0,64.795-3.346,76.576-10.048
		c4.386,6.93,6.584,13.167,6.584,18.711c0,3.931-1.213,7.276-3.639,10.048s-5.371,4.678-8.836,5.717s-9.588,1.559-18.364,1.559
		c-10.168,0-28.3-0.693-54.4-2.079c-1.619,46.897-2.426,82.814-2.426,107.762C118.033,202.282,121.726,236.125,129.121,248.367z"/>
</g>
</svg>
