solid ankle_mm
   facet normal 0.000000e+00 9.927089e-01 -1.205366e-01
      outer loop
         vertex 0.000000e+00 2.670000e+01 0.000000e+00
         vertex 1.500000e+02 2.592415e+01 -6.389728e+00
         vertex 0.000000e+00 2.592415e+01 -6.389728e+00
      endloop
   endfacet
   facet normal 0.000000e+00 9.350162e-01 -3.546049e-01
      outer loop
         vertex 0.000000e+00 2.592415e+01 -6.389728e+00
         vertex 1.500000e+02 2.592415e+01 -6.389728e+00
         vertex 1.500000e+02 2.364168e+01 -1.240811e+01
      endloop
   endfacet
   facet normal 0.000000e+00 9.350162e-01 -3.546049e-01
      outer loop
         vertex 0.000000e+00 2.592415e+01 -6.389728e+00
         vertex 1.500000e+02 2.364168e+01 -1.240811e+01
         vertex 0.000000e+00 2.364168e+01 -1.240811e+01
      endloop
   endfacet
   facet normal 0.000000e+00 8.229839e-01 -5.680648e-01
      outer loop
         vertex 0.000000e+00 2.364168e+01 -1.240811e+01
         vertex 1.500000e+02 2.364168e+01 -1.240811e+01
         vertex 1.500000e+02 1.998524e+01 -1.770538e+01
      endloop
   endfacet
   facet normal 0.000000e+00 8.229839e-01 -5.680648e-01
      outer loop
         vertex 0.000000e+00 2.364168e+01 -1.240811e+01
         vertex 1.500000e+02 1.998524e+01 -1.770538e+01
         vertex 0.000000e+00 1.998524e+01 -1.770538e+01
      endloop
   endfacet
   facet normal 0.000000e+00 6.631227e-01 -7.485107e-01
      outer loop
         vertex 0.000000e+00 1.998524e+01 -1.770538e+01
         vertex 1.500000e+02 1.998524e+01 -1.770538e+01
         vertex 1.500000e+02 1.516733e+01 -2.197367e+01
      endloop
   endfacet
   facet normal 0.000000e+00 6.631227e-01 -7.485107e-01
      outer loop
         vertex 0.000000e+00 1.998524e+01 -1.770538e+01
         vertex 1.500000e+02 1.516733e+01 -2.197367e+01
         vertex 0.000000e+00 1.516733e+01 -2.197367e+01
      endloop
   endfacet
   facet normal 0.000000e+00 4.647232e-01 -8.854560e-01
      outer loop
         vertex 0.000000e+00 1.516733e+01 -2.197367e+01
         vertex 1.500000e+02 1.516733e+01 -2.197367e+01
         vertex 1.500000e+02 9.467950e+00 -2.496493e+01
      endloop
   endfacet
   facet normal 0.000000e+00 4.647232e-01 -8.854560e-01
      outer loop
         vertex 0.000000e+00 1.516733e+01 -2.197367e+01
         vertex 1.500000e+02 9.467950e+00 -2.496493e+01
         vertex 0.000000e+00 9.467950e+00 -2.496493e+01
      endloop
   endfacet
   facet normal 0.000000e+00 2.393156e-01 -9.709418e-01
      outer loop
         vertex 0.000000e+00 9.467950e+00 -2.496493e+01
         vertex 1.500000e+02 9.467950e+00 -2.496493e+01
         vertex 1.500000e+02 3.218329e+00 -2.650533e+01
      endloop
   endfacet
   facet normal 0.000000e+00 2.393156e-01 -9.709418e-01
      outer loop
         vertex 0.000000e+00 9.467950e+00 -2.496493e+01
         vertex 1.500000e+02 3.218329e+00 -2.650533e+01
         vertex 0.000000e+00 3.218329e+00 -2.650533e+01
      endloop
   endfacet
   facet normal 0.000000e+00 0.000000e+00 -1.000000e+00
      outer loop
         vertex 0.000000e+00 3.218329e+00 -2.650533e+01
         vertex 1.500000e+02 3.218329e+00 -2.650533e+01
         vertex 1.500000e+02 -3.218329e+00 -2.650533e+01
      endloop
   endfacet
   facet normal 0.000000e+00 0.000000e+00 -1.000000e+00
      outer loop
         vertex 0.000000e+00 3.218329e+00 -2.650533e+01
         vertex 1.500000e+02 -3.218329e+00 -2.650533e+01
         vertex 0.000000e+00 -3.218329e+00 -2.650533e+01
      endloop
   endfacet
   facet normal 0.000000e+00 -2.393156e-01 -9.709418e-01
      outer loop
         vertex 0.000000e+00 -3.218329e+00 -2.650533e+01
         vertex 1.500000e+02 -3.218329e+00 -2.650533e+01
         vertex 1.500000e+02 -9.467950e+00 -2.496493e+01
      endloop
   endfacet
   facet normal 0.000000e+00 -2.393156e-01 -9.709418e-01
      outer loop
         vertex 0.000000e+00 -3.218329e+00 -2.650533e+01
         vertex 1.500000e+02 -9.467950e+00 -2.496493e+01
         vertex 0.000000e+00 -9.467950e+00 -2.496493e+01
      endloop
   endfacet
   facet normal 0.000000e+00 -4.647232e-01 -8.854560e-01
      outer loop
         vertex 0.000000e+00 -9.467950e+00 -2.496493e+01
         vertex 1.500000e+02 -9.467950e+00 -2.496493e+01
         vertex 1.500000e+02 -1.516733e+01 -2.197367e+01
      endloop
   endfacet
   facet normal 0.000000e+00 -4.647232e-01 -8.854560e-01
      outer loop
         vertex 0.000000e+00 -9.467950e+00 -2.496493e+01
         vertex 1.500000e+02 -1.516733e+01 -2.197367e+01
         vertex 0.000000e+00 -1.516733e+01 -2.197367e+01
      endloop
   endfacet
   facet normal 0.000000e+00 -6.631227e-01 -7.485107e-01
      outer loop
         vertex 0.000000e+00 -1.516733e+01 -2.197367e+01
         vertex 1.500000e+02 -1.516733e+01 -2.197367e+01
         vertex 1.500000e+02 -1.998524e+01 -1.770538e+01
      endloop
   endfacet
   facet normal 0.000000e+00 -6.631227e-01 -7.485107e-01
      outer loop
         vertex 0.000000e+00 -1.516733e+01 -2.197367e+01
         vertex 1.500000e+02 -1.998524e+01 -1.770538e+01
         vertex 0.000000e+00 -1.998524e+01 -1.770538e+01
      endloop
   endfacet
   facet normal 0.000000e+00 -8.229839e-01 -5.680648e-01
      outer loop
         vertex 0.000000e+00 -1.998524e+01 -1.770538e+01
         vertex 1.500000e+02 -1.998524e+01 -1.770538e+01
         vertex 1.500000e+02 -2.364168e+01 -1.240811e+01
      endloop
   endfacet
   facet normal 0.000000e+00 -8.229839e-01 -5.680648e-01
      outer loop
         vertex 0.000000e+00 -1.998524e+01 -1.770538e+01
         vertex 1.500000e+02 -2.364168e+01 -1.240811e+01
         vertex 0.000000e+00 -2.364168e+01 -1.240811e+01
      endloop
   endfacet
   facet normal 0.000000e+00 -9.350162e-01 -3.546049e-01
      outer loop
         vertex 0.000000e+00 -2.364168e+01 -1.240811e+01
         vertex 1.500000e+02 -2.364168e+01 -1.240811e+01
         vertex 1.500000e+02 -2.592415e+01 -6.389728e+00
      endloop
   endfacet
   facet normal 0.000000e+00 -9.350162e-01 -3.546049e-01
      outer loop
         vertex 0.000000e+00 -2.364168e+01 -1.240811e+01
         vertex 1.500000e+02 -2.592415e+01 -6.389728e+00
         vertex 0.000000e+00 -2.592415e+01 -6.389728e+00
      endloop
   endfacet
   facet normal 0.000000e+00 -9.927089e-01 -1.205366e-01
      outer loop
         vertex 0.000000e+00 -2.592415e+01 -6.389728e+00
         vertex 1.500000e+02 -2.592415e+01 -6.389728e+00
         vertex 1.500000e+02 -2.670000e+01 -3.269807e-15
      endloop
   endfacet
   facet normal 0.000000e+00 -9.927089e-01 -1.205366e-01
      outer loop
         vertex 0.000000e+00 -2.592415e+01 -6.389728e+00
         vertex 1.500000e+02 -2.670000e+01 -3.269807e-15
         vertex 0.000000e+00 -2.670000e+01 -3.269807e-15
      endloop
   endfacet
   facet normal 0.000000e+00 -9.927089e-01 1.205366e-01
      outer loop
         vertex 0.000000e+00 -2.670000e+01 -3.269807e-15
         vertex 1.500000e+02 -2.670000e+01 -3.269807e-15
         vertex 1.500000e+02 -2.592415e+01 6.389728e+00
      endloop
   endfacet
   facet normal 0.000000e+00 -9.927089e-01 1.205366e-01
      outer loop
         vertex 0.000000e+00 -2.670000e+01 -3.269807e-15
         vertex 1.500000e+02 -2.592415e+01 6.389728e+00
         vertex 0.000000e+00 -2.592415e+01 6.389728e+00
      endloop
   endfacet
   facet normal 0.000000e+00 -9.350162e-01 3.546049e-01
      outer loop
         vertex 0.000000e+00 -2.592415e+01 6.389728e+00
         vertex 1.500000e+02 -2.592415e+01 6.389728e+00
         vertex 1.500000e+02 -2.364168e+01 1.240811e+01
      endloop
   endfacet
   facet normal 0.000000e+00 -9.350162e-01 3.546049e-01
      outer loop
         vertex 0.000000e+00 -2.592415e+01 6.389728e+00
         vertex 1.500000e+02 -2.364168e+01 1.240811e+01
         vertex 0.000000e+00 -2.364168e+01 1.240811e+01
      endloop
   endfacet
   facet normal 0.000000e+00 -8.229839e-01 5.680648e-01
      outer loop
         vertex 0.000000e+00 -2.364168e+01 1.240811e+01
         vertex 1.500000e+02 -2.364168e+01 1.240811e+01
         vertex 1.500000e+02 -1.998524e+01 1.770538e+01
      endloop
   endfacet
   facet normal 0.000000e+00 -8.229839e-01 5.680648e-01
      outer loop
         vertex 0.000000e+00 -2.364168e+01 1.240811e+01
         vertex 1.500000e+02 -1.998524e+01 1.770538e+01
         vertex 0.000000e+00 -1.998524e+01 1.770538e+01
      endloop
   endfacet
   facet normal 0.000000e+00 -6.631227e-01 7.485107e-01
      outer loop
         vertex 0.000000e+00 -1.998524e+01 1.770538e+01
         vertex 1.500000e+02 -1.998524e+01 1.770538e+01
         vertex 1.500000e+02 -1.516733e+01 2.197367e+01
      endloop
   endfacet
   facet normal 0.000000e+00 -6.631227e-01 7.485107e-01
      outer loop
         vertex 0.000000e+00 -1.998524e+01 1.770538e+01
         vertex 1.500000e+02 -1.516733e+01 2.197367e+01
         vertex 0.000000e+00 -1.516733e+01 2.197367e+01
      endloop
   endfacet
   facet normal 0.000000e+00 -4.647232e-01 8.854560e-01
      outer loop
         vertex 0.000000e+00 -1.516733e+01 2.197367e+01
         vertex 1.500000e+02 -1.516733e+01 2.197367e+01
         vertex 1.500000e+02 -9.467950e+00 2.496493e+01
      endloop
   endfacet
   facet normal 0.000000e+00 -4.647232e-01 8.854560e-01
      outer loop
         vertex 0.000000e+00 -1.516733e+01 2.197367e+01
         vertex 1.500000e+02 -9.467950e+00 2.496493e+01
         vertex 0.000000e+00 -9.467950e+00 2.496493e+01
      endloop
   endfacet
   facet normal 0.000000e+00 -2.393156e-01 9.709418e-01
      outer loop
         vertex 0.000000e+00 -9.467950e+00 2.496493e+01
         vertex 1.500000e+02 -9.467950e+00 2.496493e+01
         vertex 1.500000e+02 -3.218329e+00 2.650533e+01
      endloop
   endfacet
   facet normal 0.000000e+00 -2.393156e-01 9.709418e-01
      outer loop
         vertex 0.000000e+00 -9.467950e+00 2.496493e+01
         vertex 1.500000e+02 -3.218329e+00 2.650533e+01
         vertex 0.000000e+00 -3.218329e+00 2.650533e+01
      endloop
   endfacet
   facet normal 0.000000e+00 0.000000e+00 1.000000e+00
      outer loop
         vertex 0.000000e+00 -3.218329e+00 2.650533e+01
         vertex 1.500000e+02 -3.218329e+00 2.650533e+01
         vertex 1.500000e+02 3.218329e+00 2.650533e+01
      endloop
   endfacet
   facet normal 0.000000e+00 0.000000e+00 1.000000e+00
      outer loop
         vertex 0.000000e+00 -3.218329e+00 2.650533e+01
         vertex 1.500000e+02 3.218329e+00 2.650533e+01
         vertex 0.000000e+00 3.218329e+00 2.650533e+01
      endloop
   endfacet
   facet normal 0.000000e+00 2.393156e-01 9.709418e-01
      outer loop
         vertex 0.000000e+00 3.218329e+00 2.650533e+01
         vertex 1.500000e+02 3.218329e+00 2.650533e+01
         vertex 1.500000e+02 9.467950e+00 2.496493e+01
      endloop
   endfacet
   facet normal 0.000000e+00 2.393156e-01 9.709418e-01
      outer loop
         vertex 0.000000e+00 3.218329e+00 2.650533e+01
         vertex 1.500000e+02 9.467950e+00 2.496493e+01
         vertex 0.000000e+00 9.467950e+00 2.496493e+01
      endloop
   endfacet
   facet normal 0.000000e+00 4.647232e-01 8.854560e-01
      outer loop
         vertex 0.000000e+00 9.467950e+00 2.496493e+01
         vertex 1.500000e+02 9.467950e+00 2.496493e+01
         vertex 1.500000e+02 1.516733e+01 2.197367e+01
      endloop
   endfacet
   facet normal 0.000000e+00 4.647232e-01 8.854560e-01
      outer loop
         vertex 0.000000e+00 9.467950e+00 2.496493e+01
         vertex 1.500000e+02 1.516733e+01 2.197367e+01
         vertex 0.000000e+00 1.516733e+01 2.197367e+01
      endloop
   endfacet
   facet normal 0.000000e+00 6.631227e-01 7.485107e-01
      outer loop
         vertex 0.000000e+00 1.516733e+01 2.197367e+01
         vertex 1.500000e+02 1.516733e+01 2.197367e+01
         vertex 1.500000e+02 1.998524e+01 1.770538e+01
      endloop
   endfacet
   facet normal 0.000000e+00 6.631227e-01 7.485107e-01
      outer loop
         vertex 0.000000e+00 1.516733e+01 2.197367e+01
         vertex 1.500000e+02 1.998524e+01 1.770538e+01
         vertex 0.000000e+00 1.998524e+01 1.770538e+01
      endloop
   endfacet
   facet normal 0.000000e+00 8.229839e-01 5.680648e-01
      outer loop
         vertex 0.000000e+00 1.998524e+01 1.770538e+01
         vertex 1.500000e+02 1.998524e+01 1.770538e+01
         vertex 1.500000e+02 2.364168e+01 1.240811e+01
      endloop
   endfacet
   facet normal 0.000000e+00 8.229839e-01 5.680648e-01
      outer loop
         vertex 0.000000e+00 1.998524e+01 1.770538e+01
         vertex 1.500000e+02 2.364168e+01 1.240811e+01
         vertex 0.000000e+00 2.364168e+01 1.240811e+01
      endloop
   endfacet
   facet normal 0.000000e+00 9.350162e-01 3.546049e-01
      outer loop
         vertex 0.000000e+00 2.364168e+01 1.240811e+01
         vertex 1.500000e+02 2.364168e+01 1.240811e+01
         vertex 1.500000e+02 2.592415e+01 6.389728e+00
      endloop
   endfacet
   facet normal 0.000000e+00 9.350162e-01 3.546049e-01
      outer loop
         vertex 0.000000e+00 2.364168e+01 1.240811e+01
         vertex 1.500000e+02 2.592415e+01 6.389728e+00
         vertex 0.000000e+00 2.592415e+01 6.389728e+00
      endloop
   endfacet
   facet normal 0.000000e+00 9.927089e-01 1.205366e-01
      outer loop
         vertex 0.000000e+00 2.592415e+01 6.389728e+00
         vertex 1.500000e+02 2.592415e+01 6.389728e+00
         vertex 1.500000e+02 2.670000e+01 0.000000e+00
      endloop
   endfacet
   facet normal 0.000000e+00 9.927089e-01 1.205366e-01
      outer loop
         vertex 0.000000e+00 2.592415e+01 6.389728e+00
         vertex 1.500000e+02 2.670000e+01 0.000000e+00
         vertex 0.000000e+00 2.670000e+01 0.000000e+00
      endloop
   endfacet
   facet normal 0.000000e+00 9.927089e-01 -1.205366e-01
      outer loop
         vertex 0.000000e+00 2.670000e+01 0.000000e+00
         vertex 1.500000e+02 2.670000e+01 0.000000e+00
         vertex 1.500000e+02 2.592415e+01 -6.389728e+00
      endloop
   endfacet
   facet normal 1.000000e+00 0.000000e+00 0.000000e+00
      outer loop
         vertex 1.500000e+02 -2.670000e+01 -3.269807e-15
         vertex 1.500000e+02 -2.592415e+01 -6.389728e+00
         vertex 1.500000e+02 0.000000e+00 0.000000e+00
      endloop
   endfacet
   facet normal 1.000000e+00 0.000000e+00 0.000000e+00
      outer loop
         vertex 1.500000e+02 -2.670000e+01 -3.269807e-15
         vertex 1.500000e+02 0.000000e+00 0.000000e+00
         vertex 1.500000e+02 -2.592415e+01 6.389728e+00
      endloop
   endfacet
   facet normal 1.000000e+00 0.000000e+00 0.000000e+00
      outer loop
         vertex 1.500000e+02 -1.516733e+01 2.197367e+01
         vertex 1.500000e+02 -1.998524e+01 1.770538e+01
         vertex 1.500000e+02 0.000000e+00 0.000000e+00
      endloop
   endfacet
   facet normal 1.000000e+00 0.000000e+00 0.000000e+00
      outer loop
         vertex 1.500000e+02 0.000000e+00 0.000000e+00
         vertex 1.500000e+02 -1.998524e+01 1.770538e+01
         vertex 1.500000e+02 -2.364168e+01 1.240811e+01
      endloop
   endfacet
   facet normal 1.000000e+00 0.000000e+00 0.000000e+00
      outer loop
         vertex 1.500000e+02 0.000000e+00 0.000000e+00
         vertex 1.500000e+02 -2.364168e+01 1.240811e+01
         vertex 1.500000e+02 -2.592415e+01 6.389728e+00
      endloop
   endfacet
   facet normal 1.000000e+00 0.000000e+00 0.000000e+00
      outer loop
         vertex 1.500000e+02 3.218329e+00 2.650533e+01
         vertex 1.500000e+02 -3.218329e+00 2.650533e+01
         vertex 1.500000e+02 0.000000e+00 0.000000e+00
      endloop
   endfacet
   facet normal 1.000000e+00 0.000000e+00 0.000000e+00
      outer loop
         vertex 1.500000e+02 0.000000e+00 0.000000e+00
         vertex 1.500000e+02 -3.218329e+00 2.650533e+01
         vertex 1.500000e+02 -9.467950e+00 2.496493e+01
      endloop
   endfacet
   facet normal 1.000000e+00 0.000000e+00 0.000000e+00
      outer loop
         vertex 1.500000e+02 0.000000e+00 0.000000e+00
         vertex 1.500000e+02 -9.467950e+00 2.496493e+01
         vertex 1.500000e+02 -1.516733e+01 2.197367e+01
      endloop
   endfacet
   facet normal 1.000000e+00 0.000000e+00 0.000000e+00
      outer loop
         vertex 1.500000e+02 1.998524e+01 1.770538e+01
         vertex 1.500000e+02 1.516733e+01 2.197367e+01
         vertex 1.500000e+02 0.000000e+00 0.000000e+00
      endloop
   endfacet
   facet normal 1.000000e+00 0.000000e+00 0.000000e+00
      outer loop
         vertex 1.500000e+02 0.000000e+00 0.000000e+00
         vertex 1.500000e+02 1.516733e+01 2.197367e+01
         vertex 1.500000e+02 9.467950e+00 2.496493e+01
      endloop
   endfacet
   facet normal 1.000000e+00 0.000000e+00 0.000000e+00
      outer loop
         vertex 1.500000e+02 0.000000e+00 0.000000e+00
         vertex 1.500000e+02 9.467950e+00 2.496493e+01
         vertex 1.500000e+02 3.218329e+00 2.650533e+01
      endloop
   endfacet
   facet normal 1.000000e+00 0.000000e+00 0.000000e+00
      outer loop
         vertex 1.500000e+02 2.670000e+01 0.000000e+00
         vertex 1.500000e+02 2.592415e+01 6.389728e+00
         vertex 1.500000e+02 0.000000e+00 0.000000e+00
      endloop
   endfacet
   facet normal 1.000000e+00 0.000000e+00 0.000000e+00
      outer loop
         vertex 1.500000e+02 0.000000e+00 0.000000e+00
         vertex 1.500000e+02 2.592415e+01 6.389728e+00
         vertex 1.500000e+02 2.364168e+01 1.240811e+01
      endloop
   endfacet
   facet normal 1.000000e+00 0.000000e+00 0.000000e+00
      outer loop
         vertex 1.500000e+02 0.000000e+00 0.000000e+00
         vertex 1.500000e+02 2.364168e+01 1.240811e+01
         vertex 1.500000e+02 1.998524e+01 1.770538e+01
      endloop
   endfacet
   facet normal 1.000000e+00 0.000000e+00 0.000000e+00
      outer loop
         vertex 1.500000e+02 1.998524e+01 -1.770538e+01
         vertex 1.500000e+02 2.364168e+01 -1.240811e+01
         vertex 1.500000e+02 0.000000e+00 0.000000e+00
      endloop
   endfacet
   facet normal 1.000000e+00 0.000000e+00 0.000000e+00
      outer loop
         vertex 1.500000e+02 0.000000e+00 0.000000e+00
         vertex 1.500000e+02 2.364168e+01 -1.240811e+01
         vertex 1.500000e+02 2.592415e+01 -6.389728e+00
      endloop
   endfacet
   facet normal 1.000000e+00 0.000000e+00 0.000000e+00
      outer loop
         vertex 1.500000e+02 0.000000e+00 0.000000e+00
         vertex 1.500000e+02 2.592415e+01 -6.389728e+00
         vertex 1.500000e+02 2.670000e+01 0.000000e+00
      endloop
   endfacet
   facet normal 1.000000e+00 0.000000e+00 0.000000e+00
      outer loop
         vertex 1.500000e+02 3.218329e+00 -2.650533e+01
         vertex 1.500000e+02 9.467950e+00 -2.496493e+01
         vertex 1.500000e+02 0.000000e+00 0.000000e+00
      endloop
   endfacet
   facet normal 1.000000e+00 0.000000e+00 0.000000e+00
      outer loop
         vertex 1.500000e+02 0.000000e+00 0.000000e+00
         vertex 1.500000e+02 9.467950e+00 -2.496493e+01
         vertex 1.500000e+02 1.516733e+01 -2.197367e+01
      endloop
   endfacet
   facet normal 1.000000e+00 0.000000e+00 0.000000e+00
      outer loop
         vertex 1.500000e+02 0.000000e+00 0.000000e+00
         vertex 1.500000e+02 1.516733e+01 -2.197367e+01
         vertex 1.500000e+02 1.998524e+01 -1.770538e+01
      endloop
   endfacet
   facet normal 1.000000e+00 0.000000e+00 0.000000e+00
      outer loop
         vertex 1.500000e+02 -1.516733e+01 -2.197367e+01
         vertex 1.500000e+02 -9.467950e+00 -2.496493e+01
         vertex 1.500000e+02 0.000000e+00 0.000000e+00
      endloop
   endfacet
   facet normal 1.000000e+00 0.000000e+00 0.000000e+00
      outer loop
         vertex 1.500000e+02 0.000000e+00 0.000000e+00
         vertex 1.500000e+02 -9.467950e+00 -2.496493e+01
         vertex 1.500000e+02 -3.218329e+00 -2.650533e+01
      endloop
   endfacet
   facet normal 1.000000e+00 0.000000e+00 0.000000e+00
      outer loop
         vertex 1.500000e+02 0.000000e+00 0.000000e+00
         vertex 1.500000e+02 -3.218329e+00 -2.650533e+01
         vertex 1.500000e+02 3.218329e+00 -2.650533e+01
      endloop
   endfacet
   facet normal 1.000000e+00 0.000000e+00 0.000000e+00
      outer loop
         vertex 1.500000e+02 -2.592415e+01 -6.389728e+00
         vertex 1.500000e+02 -2.364168e+01 -1.240811e+01
         vertex 1.500000e+02 0.000000e+00 0.000000e+00
      endloop
   endfacet
   facet normal 1.000000e+00 0.000000e+00 0.000000e+00
      outer loop
         vertex 1.500000e+02 0.000000e+00 0.000000e+00
         vertex 1.500000e+02 -2.364168e+01 -1.240811e+01
         vertex 1.500000e+02 -1.998524e+01 -1.770538e+01
      endloop
   endfacet
   facet normal 1.000000e+00 0.000000e+00 0.000000e+00
      outer loop
         vertex 1.500000e+02 0.000000e+00 0.000000e+00
         vertex 1.500000e+02 -1.998524e+01 -1.770538e+01
         vertex 1.500000e+02 -1.516733e+01 -2.197367e+01
      endloop
   endfacet
   facet normal -1.000000e+00 0.000000e+00 0.000000e+00
      outer loop
         vertex 0.000000e+00 -2.670000e+01 -9.809421e-15
         vertex 0.000000e+00 -2.592415e+01 6.389728e+00
         vertex 0.000000e+00 0.000000e+00 0.000000e+00
      endloop
   endfacet
   facet normal -1.000000e+00 0.000000e+00 -0.000000e+00
      outer loop
         vertex 0.000000e+00 -2.670000e+01 -9.809421e-15
         vertex 0.000000e+00 0.000000e+00 0.000000e+00
         vertex 0.000000e+00 -2.592415e+01 -6.389728e+00
      endloop
   endfacet
   facet normal -1.000000e+00 -0.000000e+00 0.000000e+00
      outer loop
         vertex 0.000000e+00 -1.516733e+01 -2.197367e+01
         vertex 0.000000e+00 -1.998524e+01 -1.770538e+01
         vertex 0.000000e+00 0.000000e+00 0.000000e+00
      endloop
   endfacet
   facet normal -1.000000e+00 0.000000e+00 0.000000e+00
      outer loop
         vertex 0.000000e+00 0.000000e+00 0.000000e+00
         vertex 0.000000e+00 -1.998524e+01 -1.770538e+01
         vertex 0.000000e+00 -2.364168e+01 -1.240811e+01
      endloop
   endfacet
   facet normal -1.000000e+00 0.000000e+00 0.000000e+00
      outer loop
         vertex 0.000000e+00 0.000000e+00 0.000000e+00
         vertex 0.000000e+00 -2.364168e+01 -1.240811e+01
         vertex 0.000000e+00 -2.592415e+01 -6.389728e+00
      endloop
   endfacet
   facet normal -1.000000e+00 0.000000e+00 0.000000e+00
      outer loop
         vertex 0.000000e+00 3.218329e+00 -2.650533e+01
         vertex 0.000000e+00 -3.218329e+00 -2.650533e+01
         vertex 0.000000e+00 0.000000e+00 0.000000e+00
      endloop
   endfacet
   facet normal -1.000000e+00 0.000000e+00 0.000000e+00
      outer loop
         vertex 0.000000e+00 0.000000e+00 0.000000e+00
         vertex 0.000000e+00 -3.218329e+00 -2.650533e+01
         vertex 0.000000e+00 -9.467950e+00 -2.496493e+01
      endloop
   endfacet
   facet normal -1.000000e+00 0.000000e+00 0.000000e+00
      outer loop
         vertex 0.000000e+00 0.000000e+00 0.000000e+00
         vertex 0.000000e+00 -9.467950e+00 -2.496493e+01
         vertex 0.000000e+00 -1.516733e+01 -2.197367e+01
      endloop
   endfacet
   facet normal -1.000000e+00 0.000000e+00 0.000000e+00
      outer loop
         vertex 0.000000e+00 1.998524e+01 -1.770538e+01
         vertex 0.000000e+00 1.516733e+01 -2.197367e+01
         vertex 0.000000e+00 0.000000e+00 0.000000e+00
      endloop
   endfacet
   facet normal -1.000000e+00 0.000000e+00 0.000000e+00
      outer loop
         vertex 0.000000e+00 0.000000e+00 0.000000e+00
         vertex 0.000000e+00 1.516733e+01 -2.197367e+01
         vertex 0.000000e+00 9.467950e+00 -2.496493e+01
      endloop
   endfacet
   facet normal -1.000000e+00 0.000000e+00 0.000000e+00
      outer loop
         vertex 0.000000e+00 0.000000e+00 0.000000e+00
         vertex 0.000000e+00 9.467950e+00 -2.496493e+01
         vertex 0.000000e+00 3.218329e+00 -2.650533e+01
      endloop
   endfacet
   facet normal -1.000000e+00 0.000000e+00 0.000000e+00
      outer loop
         vertex 0.000000e+00 2.670000e+01 0.000000e+00
         vertex 0.000000e+00 2.592415e+01 -6.389728e+00
         vertex 0.000000e+00 0.000000e+00 0.000000e+00
      endloop
   endfacet
   facet normal -1.000000e+00 0.000000e+00 0.000000e+00
      outer loop
         vertex 0.000000e+00 0.000000e+00 0.000000e+00
         vertex 0.000000e+00 2.592415e+01 -6.389728e+00
         vertex 0.000000e+00 2.364168e+01 -1.240811e+01
      endloop
   endfacet
   facet normal -1.000000e+00 0.000000e+00 0.000000e+00
      outer loop
         vertex 0.000000e+00 0.000000e+00 0.000000e+00
         vertex 0.000000e+00 2.364168e+01 -1.240811e+01
         vertex 0.000000e+00 1.998524e+01 -1.770538e+01
      endloop
   endfacet
   facet normal -1.000000e+00 0.000000e+00 0.000000e+00
      outer loop
         vertex 0.000000e+00 1.998524e+01 1.770538e+01
         vertex 0.000000e+00 2.364168e+01 1.240811e+01
         vertex 0.000000e+00 0.000000e+00 0.000000e+00
      endloop
   endfacet
   facet normal -1.000000e+00 0.000000e+00 0.000000e+00
      outer loop
         vertex 0.000000e+00 0.000000e+00 0.000000e+00
         vertex 0.000000e+00 2.364168e+01 1.240811e+01
         vertex 0.000000e+00 2.592415e+01 6.389728e+00
      endloop
   endfacet
   facet normal -1.000000e+00 0.000000e+00 -0.000000e+00
      outer loop
         vertex 0.000000e+00 0.000000e+00 0.000000e+00
         vertex 0.000000e+00 2.592415e+01 6.389728e+00
         vertex 0.000000e+00 2.670000e+01 0.000000e+00
      endloop
   endfacet
   facet normal -1.000000e+00 0.000000e+00 0.000000e+00
      outer loop
         vertex 0.000000e+00 3.218329e+00 2.650533e+01
         vertex 0.000000e+00 9.467950e+00 2.496493e+01
         vertex 0.000000e+00 0.000000e+00 0.000000e+00
      endloop
   endfacet
   facet normal -1.000000e+00 0.000000e+00 0.000000e+00
      outer loop
         vertex 0.000000e+00 0.000000e+00 0.000000e+00
         vertex 0.000000e+00 9.467950e+00 2.496493e+01
         vertex 0.000000e+00 1.516733e+01 2.197367e+01
      endloop
   endfacet
   facet normal -1.000000e+00 0.000000e+00 0.000000e+00
      outer loop
         vertex 0.000000e+00 0.000000e+00 0.000000e+00
         vertex 0.000000e+00 1.516733e+01 2.197367e+01
         vertex 0.000000e+00 1.998524e+01 1.770538e+01
      endloop
   endfacet
   facet normal -1.000000e+00 0.000000e+00 -0.000000e+00
      outer loop
         vertex 0.000000e+00 -1.516733e+01 2.197367e+01
         vertex 0.000000e+00 -9.467950e+00 2.496493e+01
         vertex 0.000000e+00 0.000000e+00 0.000000e+00
      endloop
   endfacet
   facet normal -1.000000e+00 0.000000e+00 0.000000e+00
      outer loop
         vertex 0.000000e+00 0.000000e+00 0.000000e+00
         vertex 0.000000e+00 -9.467950e+00 2.496493e+01
         vertex 0.000000e+00 -3.218329e+00 2.650533e+01
      endloop
   endfacet
   facet normal -1.000000e+00 -0.000000e+00 0.000000e+00
      outer loop
         vertex 0.000000e+00 0.000000e+00 0.000000e+00
         vertex 0.000000e+00 -3.218329e+00 2.650533e+01
         vertex 0.000000e+00 3.218329e+00 2.650533e+01
      endloop
   endfacet
   facet normal -1.000000e+00 0.000000e+00 -0.000000e+00
      outer loop
         vertex 0.000000e+00 -2.592415e+01 6.389728e+00
         vertex 0.000000e+00 -2.364168e+01 1.240811e+01
         vertex 0.000000e+00 0.000000e+00 0.000000e+00
      endloop
   endfacet
   facet normal -1.000000e+00 0.000000e+00 0.000000e+00
      outer loop
         vertex 0.000000e+00 0.000000e+00 0.000000e+00
         vertex 0.000000e+00 -2.364168e+01 1.240811e+01
         vertex 0.000000e+00 -1.998524e+01 1.770538e+01
      endloop
   endfacet
   facet normal -1.000000e+00 0.000000e+00 0.000000e+00
      outer loop
         vertex 0.000000e+00 0.000000e+00 0.000000e+00
         vertex 0.000000e+00 -1.998524e+01 1.770538e+01
         vertex 0.000000e+00 -1.516733e+01 2.197367e+01
      endloop
   endfacet
endsolid