solid ankle
   facet normal 0.000000e+00 9.927089e-01 -1.205366e-01
      outer loop
         vertex 0.000000e+00 2.670000e-02 0.000000e+00
         vertex 1.500000e-01 2.592415e-02 -6.389728e-03
         vertex 0.000000e+00 2.592415e-02 -6.389728e-03
      endloop
   endfacet
   facet normal 0.000000e+00 9.350162e-01 -3.546049e-01
      outer loop
         vertex 0.000000e+00 2.592415e-02 -6.389728e-03
         vertex 1.500000e-01 2.592415e-02 -6.389728e-03
         vertex 1.500000e-01 2.364168e-02 -1.240811e-02
      endloop
   endfacet
   facet normal 0.000000e+00 9.350162e-01 -3.546049e-01
      outer loop
         vertex 0.000000e+00 2.592415e-02 -6.389728e-03
         vertex 1.500000e-01 2.364168e-02 -1.240811e-02
         vertex 0.000000e+00 2.364168e-02 -1.240811e-02
      endloop
   endfacet
   facet normal 0.000000e+00 8.229839e-01 -5.680648e-01
      outer loop
         vertex 0.000000e+00 2.364168e-02 -1.240811e-02
         vertex 1.500000e-01 2.364168e-02 -1.240811e-02
         vertex 1.500000e-01 1.998524e-02 -1.770538e-02
      endloop
   endfacet
   facet normal 0.000000e+00 8.229839e-01 -5.680648e-01
      outer loop
         vertex 0.000000e+00 2.364168e-02 -1.240811e-02
         vertex 1.500000e-01 1.998524e-02 -1.770538e-02
         vertex 0.000000e+00 1.998524e-02 -1.770538e-02
      endloop
   endfacet
   facet normal 0.000000e+00 6.631227e-01 -7.485107e-01
      outer loop
         vertex 0.000000e+00 1.998524e-02 -1.770538e-02
         vertex 1.500000e-01 1.998524e-02 -1.770538e-02
         vertex 1.500000e-01 1.516733e-02 -2.197367e-02
      endloop
   endfacet
   facet normal 0.000000e+00 6.631227e-01 -7.485107e-01
      outer loop
         vertex 0.000000e+00 1.998524e-02 -1.770538e-02
         vertex 1.500000e-01 1.516733e-02 -2.197367e-02
         vertex 0.000000e+00 1.516733e-02 -2.197367e-02
      endloop
   endfacet
   facet normal 0.000000e+00 4.647232e-01 -8.854560e-01
      outer loop
         vertex 0.000000e+00 1.516733e-02 -2.197367e-02
         vertex 1.500000e-01 1.516733e-02 -2.197367e-02
         vertex 1.500000e-01 9.467950e-03 -2.496493e-02
      endloop
   endfacet
   facet normal 0.000000e+00 4.647232e-01 -8.854560e-01
      outer loop
         vertex 0.000000e+00 1.516733e-02 -2.197367e-02
         vertex 1.500000e-01 9.467950e-03 -2.496493e-02
         vertex 0.000000e+00 9.467950e-03 -2.496493e-02
      endloop
   endfacet
   facet normal 0.000000e+00 2.393156e-01 -9.709418e-01
      outer loop
         vertex 0.000000e+00 9.467950e-03 -2.496493e-02
         vertex 1.500000e-01 9.467950e-03 -2.496493e-02
         vertex 1.500000e-01 3.218329e-03 -2.650533e-02
      endloop
   endfacet
   facet normal 0.000000e+00 2.393156e-01 -9.709418e-01
      outer loop
         vertex 0.000000e+00 9.467950e-03 -2.496493e-02
         vertex 1.500000e-01 3.218329e-03 -2.650533e-02
         vertex 0.000000e+00 3.218329e-03 -2.650533e-02
      endloop
   endfacet
   facet normal 0.000000e+00 0.000000e+00 -1.000000e+00
      outer loop
         vertex 0.000000e+00 3.218329e-03 -2.650533e-02
         vertex 1.500000e-01 3.218329e-03 -2.650533e-02
         vertex 1.500000e-01 -3.218329e-03 -2.650533e-02
      endloop
   endfacet
   facet normal 0.000000e+00 0.000000e+00 -1.000000e+00
      outer loop
         vertex 0.000000e+00 3.218329e-03 -2.650533e-02
         vertex 1.500000e-01 -3.218329e-03 -2.650533e-02
         vertex 0.000000e+00 -3.218329e-03 -2.650533e-02
      endloop
   endfacet
   facet normal 0.000000e+00 -2.393156e-01 -9.709418e-01
      outer loop
         vertex 0.000000e+00 -3.218329e-03 -2.650533e-02
         vertex 1.500000e-01 -3.218329e-03 -2.650533e-02
         vertex 1.500000e-01 -9.467950e-03 -2.496493e-02
      endloop
   endfacet
   facet normal 0.000000e+00 -2.393156e-01 -9.709418e-01
      outer loop
         vertex 0.000000e+00 -3.218329e-03 -2.650533e-02
         vertex 1.500000e-01 -9.467950e-03 -2.496493e-02
         vertex 0.000000e+00 -9.467950e-03 -2.496493e-02
      endloop
   endfacet
   facet normal 0.000000e+00 -4.647232e-01 -8.854560e-01
      outer loop
         vertex 0.000000e+00 -9.467950e-03 -2.496493e-02
         vertex 1.500000e-01 -9.467950e-03 -2.496493e-02
         vertex 1.500000e-01 -1.516733e-02 -2.197367e-02
      endloop
   endfacet
   facet normal 0.000000e+00 -4.647232e-01 -8.854560e-01
      outer loop
         vertex 0.000000e+00 -9.467950e-03 -2.496493e-02
         vertex 1.500000e-01 -1.516733e-02 -2.197367e-02
         vertex 0.000000e+00 -1.516733e-02 -2.197367e-02
      endloop
   endfacet
   facet normal 0.000000e+00 -6.631227e-01 -7.485107e-01
      outer loop
         vertex 0.000000e+00 -1.516733e-02 -2.197367e-02
         vertex 1.500000e-01 -1.516733e-02 -2.197367e-02
         vertex 1.500000e-01 -1.998524e-02 -1.770538e-02
      endloop
   endfacet
   facet normal 0.000000e+00 -6.631227e-01 -7.485107e-01
      outer loop
         vertex 0.000000e+00 -1.516733e-02 -2.197367e-02
         vertex 1.500000e-01 -1.998524e-02 -1.770538e-02
         vertex 0.000000e+00 -1.998524e-02 -1.770538e-02
      endloop
   endfacet
   facet normal 0.000000e+00 -8.229839e-01 -5.680648e-01
      outer loop
         vertex 0.000000e+00 -1.998524e-02 -1.770538e-02
         vertex 1.500000e-01 -1.998524e-02 -1.770538e-02
         vertex 1.500000e-01 -2.364168e-02 -1.240811e-02
      endloop
   endfacet
   facet normal 0.000000e+00 -8.229839e-01 -5.680648e-01
      outer loop
         vertex 0.000000e+00 -1.998524e-02 -1.770538e-02
         vertex 1.500000e-01 -2.364168e-02 -1.240811e-02
         vertex 0.000000e+00 -2.364168e-02 -1.240811e-02
      endloop
   endfacet
   facet normal 0.000000e+00 -9.350162e-01 -3.546049e-01
      outer loop
         vertex 0.000000e+00 -2.364168e-02 -1.240811e-02
         vertex 1.500000e-01 -2.364168e-02 -1.240811e-02
         vertex 1.500000e-01 -2.592415e-02 -6.389728e-03
      endloop
   endfacet
   facet normal 0.000000e+00 -9.350162e-01 -3.546049e-01
      outer loop
         vertex 0.000000e+00 -2.364168e-02 -1.240811e-02
         vertex 1.500000e-01 -2.592415e-02 -6.389728e-03
         vertex 0.000000e+00 -2.592415e-02 -6.389728e-03
      endloop
   endfacet
   facet normal 0.000000e+00 -9.927089e-01 -1.205366e-01
      outer loop
         vertex 0.000000e+00 -2.592415e-02 -6.389728e-03
         vertex 1.500000e-01 -2.592415e-02 -6.389728e-03
         vertex 1.500000e-01 -2.670000e-02 -3.269807e-18
      endloop
   endfacet
   facet normal 0.000000e+00 -9.927089e-01 -1.205366e-01
      outer loop
         vertex 0.000000e+00 -2.592415e-02 -6.389728e-03
         vertex 1.500000e-01 -2.670000e-02 -3.269807e-18
         vertex 0.000000e+00 -2.670000e-02 -3.269807e-18
      endloop
   endfacet
   facet normal 0.000000e+00 -9.927089e-01 1.205366e-01
      outer loop
         vertex 0.000000e+00 -2.670000e-02 -3.269807e-18
         vertex 1.500000e-01 -2.670000e-02 -3.269807e-18
         vertex 1.500000e-01 -2.592415e-02 6.389728e-03
      endloop
   endfacet
   facet normal 0.000000e+00 -9.927089e-01 1.205366e-01
      outer loop
         vertex 0.000000e+00 -2.670000e-02 -3.269807e-18
         vertex 1.500000e-01 -2.592415e-02 6.389728e-03
         vertex 0.000000e+00 -2.592415e-02 6.389728e-03
      endloop
   endfacet
   facet normal 0.000000e+00 -9.350162e-01 3.546049e-01
      outer loop
         vertex 0.000000e+00 -2.592415e-02 6.389728e-03
         vertex 1.500000e-01 -2.592415e-02 6.389728e-03
         vertex 1.500000e-01 -2.364168e-02 1.240811e-02
      endloop
   endfacet
   facet normal 0.000000e+00 -9.350162e-01 3.546049e-01
      outer loop
         vertex 0.000000e+00 -2.592415e-02 6.389728e-03
         vertex 1.500000e-01 -2.364168e-02 1.240811e-02
         vertex 0.000000e+00 -2.364168e-02 1.240811e-02
      endloop
   endfacet
   facet normal 0.000000e+00 -8.229839e-01 5.680648e-01
      outer loop
         vertex 0.000000e+00 -2.364168e-02 1.240811e-02
         vertex 1.500000e-01 -2.364168e-02 1.240811e-02
         vertex 1.500000e-01 -1.998524e-02 1.770538e-02
      endloop
   endfacet
   facet normal 0.000000e+00 -8.229839e-01 5.680648e-01
      outer loop
         vertex 0.000000e+00 -2.364168e-02 1.240811e-02
         vertex 1.500000e-01 -1.998524e-02 1.770538e-02
         vertex 0.000000e+00 -1.998524e-02 1.770538e-02
      endloop
   endfacet
   facet normal 0.000000e+00 -6.631227e-01 7.485107e-01
      outer loop
         vertex 0.000000e+00 -1.998524e-02 1.770538e-02
         vertex 1.500000e-01 -1.998524e-02 1.770538e-02
         vertex 1.500000e-01 -1.516733e-02 2.197367e-02
      endloop
   endfacet
   facet normal 0.000000e+00 -6.631227e-01 7.485107e-01
      outer loop
         vertex 0.000000e+00 -1.998524e-02 1.770538e-02
         vertex 1.500000e-01 -1.516733e-02 2.197367e-02
         vertex 0.000000e+00 -1.516733e-02 2.197367e-02
      endloop
   endfacet
   facet normal 0.000000e+00 -4.647232e-01 8.854560e-01
      outer loop
         vertex 0.000000e+00 -1.516733e-02 2.197367e-02
         vertex 1.500000e-01 -1.516733e-02 2.197367e-02
         vertex 1.500000e-01 -9.467950e-03 2.496493e-02
      endloop
   endfacet
   facet normal 0.000000e+00 -4.647232e-01 8.854560e-01
      outer loop
         vertex 0.000000e+00 -1.516733e-02 2.197367e-02
         vertex 1.500000e-01 -9.467950e-03 2.496493e-02
         vertex 0.000000e+00 -9.467950e-03 2.496493e-02
      endloop
   endfacet
   facet normal 0.000000e+00 -2.393156e-01 9.709418e-01
      outer loop
         vertex 0.000000e+00 -9.467950e-03 2.496493e-02
         vertex 1.500000e-01 -9.467950e-03 2.496493e-02
         vertex 1.500000e-01 -3.218329e-03 2.650533e-02
      endloop
   endfacet
   facet normal 0.000000e+00 -2.393156e-01 9.709418e-01
      outer loop
         vertex 0.000000e+00 -9.467950e-03 2.496493e-02
         vertex 1.500000e-01 -3.218329e-03 2.650533e-02
         vertex 0.000000e+00 -3.218329e-03 2.650533e-02
      endloop
   endfacet
   facet normal 0.000000e+00 0.000000e+00 1.000000e+00
      outer loop
         vertex 0.000000e+00 -3.218329e-03 2.650533e-02
         vertex 1.500000e-01 -3.218329e-03 2.650533e-02
         vertex 1.500000e-01 3.218329e-03 2.650533e-02
      endloop
   endfacet
   facet normal 0.000000e+00 0.000000e+00 1.000000e+00
      outer loop
         vertex 0.000000e+00 -3.218329e-03 2.650533e-02
         vertex 1.500000e-01 3.218329e-03 2.650533e-02
         vertex 0.000000e+00 3.218329e-03 2.650533e-02
      endloop
   endfacet
   facet normal 0.000000e+00 2.393156e-01 9.709418e-01
      outer loop
         vertex 0.000000e+00 3.218329e-03 2.650533e-02
         vertex 1.500000e-01 3.218329e-03 2.650533e-02
         vertex 1.500000e-01 9.467950e-03 2.496493e-02
      endloop
   endfacet
   facet normal 0.000000e+00 2.393156e-01 9.709418e-01
      outer loop
         vertex 0.000000e+00 3.218329e-03 2.650533e-02
         vertex 1.500000e-01 9.467950e-03 2.496493e-02
         vertex 0.000000e+00 9.467950e-03 2.496493e-02
      endloop
   endfacet
   facet normal 0.000000e+00 4.647232e-01 8.854560e-01
      outer loop
         vertex 0.000000e+00 9.467950e-03 2.496493e-02
         vertex 1.500000e-01 9.467950e-03 2.496493e-02
         vertex 1.500000e-01 1.516733e-02 2.197367e-02
      endloop
   endfacet
   facet normal 0.000000e+00 4.647232e-01 8.854560e-01
      outer loop
         vertex 0.000000e+00 9.467950e-03 2.496493e-02
         vertex 1.500000e-01 1.516733e-02 2.197367e-02
         vertex 0.000000e+00 1.516733e-02 2.197367e-02
      endloop
   endfacet
   facet normal 0.000000e+00 6.631227e-01 7.485107e-01
      outer loop
         vertex 0.000000e+00 1.516733e-02 2.197367e-02
         vertex 1.500000e-01 1.516733e-02 2.197367e-02
         vertex 1.500000e-01 1.998524e-02 1.770538e-02
      endloop
   endfacet
   facet normal 0.000000e+00 6.631227e-01 7.485107e-01
      outer loop
         vertex 0.000000e+00 1.516733e-02 2.197367e-02
         vertex 1.500000e-01 1.998524e-02 1.770538e-02
         vertex 0.000000e+00 1.998524e-02 1.770538e-02
      endloop
   endfacet
   facet normal 0.000000e+00 8.229839e-01 5.680648e-01
      outer loop
         vertex 0.000000e+00 1.998524e-02 1.770538e-02
         vertex 1.500000e-01 1.998524e-02 1.770538e-02
         vertex 1.500000e-01 2.364168e-02 1.240811e-02
      endloop
   endfacet
   facet normal 0.000000e+00 8.229839e-01 5.680648e-01
      outer loop
         vertex 0.000000e+00 1.998524e-02 1.770538e-02
         vertex 1.500000e-01 2.364168e-02 1.240811e-02
         vertex 0.000000e+00 2.364168e-02 1.240811e-02
      endloop
   endfacet
   facet normal 0.000000e+00 9.350162e-01 3.546049e-01
      outer loop
         vertex 0.000000e+00 2.364168e-02 1.240811e-02
         vertex 1.500000e-01 2.364168e-02 1.240811e-02
         vertex 1.500000e-01 2.592415e-02 6.389728e-03
      endloop
   endfacet
   facet normal 0.000000e+00 9.350162e-01 3.546049e-01
      outer loop
         vertex 0.000000e+00 2.364168e-02 1.240811e-02
         vertex 1.500000e-01 2.592415e-02 6.389728e-03
         vertex 0.000000e+00 2.592415e-02 6.389728e-03
      endloop
   endfacet
   facet normal 0.000000e+00 9.927089e-01 1.205366e-01
      outer loop
         vertex 0.000000e+00 2.592415e-02 6.389728e-03
         vertex 1.500000e-01 2.592415e-02 6.389728e-03
         vertex 1.500000e-01 2.670000e-02 0.000000e+00
      endloop
   endfacet
   facet normal 0.000000e+00 9.927089e-01 1.205366e-01
      outer loop
         vertex 0.000000e+00 2.592415e-02 6.389728e-03
         vertex 1.500000e-01 2.670000e-02 0.000000e+00
         vertex 0.000000e+00 2.670000e-02 0.000000e+00
      endloop
   endfacet
   facet normal 0.000000e+00 9.927089e-01 -1.205366e-01
      outer loop
         vertex 0.000000e+00 2.670000e-02 0.000000e+00
         vertex 1.500000e-01 2.670000e-02 0.000000e+00
         vertex 1.500000e-01 2.592415e-02 -6.389728e-03
      endloop
   endfacet
   facet normal 1.000000e+00 0.000000e+00 0.000000e+00
      outer loop
         vertex 1.500000e-01 -2.670000e-02 -3.269807e-18
         vertex 1.500000e-01 -2.592415e-02 -6.389728e-03
         vertex 1.500000e-01 0.000000e+00 0.000000e+00
      endloop
   endfacet
   facet normal 1.000000e+00 0.000000e+00 0.000000e+00
      outer loop
         vertex 1.500000e-01 -2.670000e-02 -3.269807e-18
         vertex 1.500000e-01 0.000000e+00 0.000000e+00
         vertex 1.500000e-01 -2.592415e-02 6.389728e-03
      endloop
   endfacet
   facet normal 1.000000e+00 0.000000e+00 0.000000e+00
      outer loop
         vertex 1.500000e-01 -1.516733e-02 2.197367e-02
         vertex 1.500000e-01 -1.998524e-02 1.770538e-02
         vertex 1.500000e-01 0.000000e+00 0.000000e+00
      endloop
   endfacet
   facet normal 1.000000e+00 0.000000e+00 0.000000e+00
      outer loop
         vertex 1.500000e-01 0.000000e+00 0.000000e+00
         vertex 1.500000e-01 -1.998524e-02 1.770538e-02
         vertex 1.500000e-01 -2.364168e-02 1.240811e-02
      endloop
   endfacet
   facet normal 1.000000e+00 0.000000e+00 0.000000e+00
      outer loop
         vertex 1.500000e-01 0.000000e+00 0.000000e+00
         vertex 1.500000e-01 -2.364168e-02 1.240811e-02
         vertex 1.500000e-01 -2.592415e-02 6.389728e-03
      endloop
   endfacet
   facet normal 1.000000e+00 0.000000e+00 0.000000e+00
      outer loop
         vertex 1.500000e-01 3.218329e-03 2.650533e-02
         vertex 1.500000e-01 -3.218329e-03 2.650533e-02
         vertex 1.500000e-01 0.000000e+00 0.000000e+00
      endloop
   endfacet
   facet normal 1.000000e+00 0.000000e+00 0.000000e+00
      outer loop
         vertex 1.500000e-01 0.000000e+00 0.000000e+00
         vertex 1.500000e-01 -3.218329e-03 2.650533e-02
         vertex 1.500000e-01 -9.467950e-03 2.496493e-02
      endloop
   endfacet
   facet normal 1.000000e+00 0.000000e+00 0.000000e+00
      outer loop
         vertex 1.500000e-01 0.000000e+00 0.000000e+00
         vertex 1.500000e-01 -9.467950e-03 2.496493e-02
         vertex 1.500000e-01 -1.516733e-02 2.197367e-02
      endloop
   endfacet
   facet normal 1.000000e+00 0.000000e+00 0.000000e+00
      outer loop
         vertex 1.500000e-01 1.998524e-02 1.770538e-02
         vertex 1.500000e-01 1.516733e-02 2.197367e-02
         vertex 1.500000e-01 0.000000e+00 0.000000e+00
      endloop
   endfacet
   facet normal 1.000000e+00 0.000000e+00 0.000000e+00
      outer loop
         vertex 1.500000e-01 0.000000e+00 0.000000e+00
         vertex 1.500000e-01 1.516733e-02 2.197367e-02
         vertex 1.500000e-01 9.467950e-03 2.496493e-02
      endloop
   endfacet
   facet normal 1.000000e+00 0.000000e+00 0.000000e+00
      outer loop
         vertex 1.500000e-01 0.000000e+00 0.000000e+00
         vertex 1.500000e-01 9.467950e-03 2.496493e-02
         vertex 1.500000e-01 3.218329e-03 2.650533e-02
      endloop
   endfacet
   facet normal 1.000000e+00 0.000000e+00 0.000000e+00
      outer loop
         vertex 1.500000e-01 2.670000e-02 0.000000e+00
         vertex 1.500000e-01 2.592415e-02 6.389728e-03
         vertex 1.500000e-01 0.000000e+00 0.000000e+00
      endloop
   endfacet
   facet normal 1.000000e+00 0.000000e+00 0.000000e+00
      outer loop
         vertex 1.500000e-01 0.000000e+00 0.000000e+00
         vertex 1.500000e-01 2.592415e-02 6.389728e-03
         vertex 1.500000e-01 2.364168e-02 1.240811e-02
      endloop
   endfacet
   facet normal 1.000000e+00 0.000000e+00 0.000000e+00
      outer loop
         vertex 1.500000e-01 0.000000e+00 0.000000e+00
         vertex 1.500000e-01 2.364168e-02 1.240811e-02
         vertex 1.500000e-01 1.998524e-02 1.770538e-02
      endloop
   endfacet
   facet normal 1.000000e+00 0.000000e+00 0.000000e+00
      outer loop
         vertex 1.500000e-01 1.998524e-02 -1.770538e-02
         vertex 1.500000e-01 2.364168e-02 -1.240811e-02
         vertex 1.500000e-01 0.000000e+00 0.000000e+00
      endloop
   endfacet
   facet normal 1.000000e+00 0.000000e+00 0.000000e+00
      outer loop
         vertex 1.500000e-01 0.000000e+00 0.000000e+00
         vertex 1.500000e-01 2.364168e-02 -1.240811e-02
         vertex 1.500000e-01 2.592415e-02 -6.389728e-03
      endloop
   endfacet
   facet normal 1.000000e+00 0.000000e+00 0.000000e+00
      outer loop
         vertex 1.500000e-01 0.000000e+00 0.000000e+00
         vertex 1.500000e-01 2.592415e-02 -6.389728e-03
         vertex 1.500000e-01 2.670000e-02 0.000000e+00
      endloop
   endfacet
   facet normal 1.000000e+00 0.000000e+00 0.000000e+00
      outer loop
         vertex 1.500000e-01 3.218329e-03 -2.650533e-02
         vertex 1.500000e-01 9.467950e-03 -2.496493e-02
         vertex 1.500000e-01 0.000000e+00 0.000000e+00
      endloop
   endfacet
   facet normal 1.000000e+00 0.000000e+00 0.000000e+00
      outer loop
         vertex 1.500000e-01 0.000000e+00 0.000000e+00
         vertex 1.500000e-01 9.467950e-03 -2.496493e-02
         vertex 1.500000e-01 1.516733e-02 -2.197367e-02
      endloop
   endfacet
   facet normal 1.000000e+00 0.000000e+00 0.000000e+00
      outer loop
         vertex 1.500000e-01 0.000000e+00 0.000000e+00
         vertex 1.500000e-01 1.516733e-02 -2.197367e-02
         vertex 1.500000e-01 1.998524e-02 -1.770538e-02
      endloop
   endfacet
   facet normal 1.000000e+00 0.000000e+00 0.000000e+00
      outer loop
         vertex 1.500000e-01 -1.516733e-02 -2.197367e-02
         vertex 1.500000e-01 -9.467950e-03 -2.496493e-02
         vertex 1.500000e-01 0.000000e+00 0.000000e+00
      endloop
   endfacet
   facet normal 1.000000e+00 0.000000e+00 0.000000e+00
      outer loop
         vertex 1.500000e-01 0.000000e+00 0.000000e+00
         vertex 1.500000e-01 -9.467950e-03 -2.496493e-02
         vertex 1.500000e-01 -3.218329e-03 -2.650533e-02
      endloop
   endfacet
   facet normal 1.000000e+00 0.000000e+00 0.000000e+00
      outer loop
         vertex 1.500000e-01 0.000000e+00 0.000000e+00
         vertex 1.500000e-01 -3.218329e-03 -2.650533e-02
         vertex 1.500000e-01 3.218329e-03 -2.650533e-02
      endloop
   endfacet
   facet normal 1.000000e+00 0.000000e+00 0.000000e+00
      outer loop
         vertex 1.500000e-01 -2.592415e-02 -6.389728e-03
         vertex 1.500000e-01 -2.364168e-02 -1.240811e-02
         vertex 1.500000e-01 0.000000e+00 0.000000e+00
      endloop
   endfacet
   facet normal 1.000000e+00 0.000000e+00 0.000000e+00
      outer loop
         vertex 1.500000e-01 0.000000e+00 0.000000e+00
         vertex 1.500000e-01 -2.364168e-02 -1.240811e-02
         vertex 1.500000e-01 -1.998524e-02 -1.770538e-02
      endloop
   endfacet
   facet normal 1.000000e+00 0.000000e+00 0.000000e+00
      outer loop
         vertex 1.500000e-01 0.000000e+00 0.000000e+00
         vertex 1.500000e-01 -1.998524e-02 -1.770538e-02
         vertex 1.500000e-01 -1.516733e-02 -2.197367e-02
      endloop
   endfacet
   facet normal -1.000000e+00 0.000000e+00 0.000000e+00
      outer loop
         vertex 0.000000e+00 -2.670000e-02 -9.809421e-18
         vertex 0.000000e+00 -2.592415e-02 6.389728e-03
         vertex 0.000000e+00 0.000000e+00 0.000000e+00
      endloop
   endfacet
   facet normal -1.000000e+00 0.000000e+00 -0.000000e+00
      outer loop
         vertex 0.000000e+00 -2.670000e-02 -9.809421e-18
         vertex 0.000000e+00 0.000000e+00 0.000000e+00
         vertex 0.000000e+00 -2.592415e-02 -6.389728e-03
      endloop
   endfacet
   facet normal -1.000000e+00 -0.000000e+00 0.000000e+00
      outer loop
         vertex 0.000000e+00 -1.516733e-02 -2.197367e-02
         vertex 0.000000e+00 -1.998524e-02 -1.770538e-02
         vertex 0.000000e+00 0.000000e+00 0.000000e+00
      endloop
   endfacet
   facet normal -1.000000e+00 0.000000e+00 0.000000e+00
      outer loop
         vertex 0.000000e+00 0.000000e+00 0.000000e+00
         vertex 0.000000e+00 -1.998524e-02 -1.770538e-02
         vertex 0.000000e+00 -2.364168e-02 -1.240811e-02
      endloop
   endfacet
   facet normal -1.000000e+00 0.000000e+00 0.000000e+00
      outer loop
         vertex 0.000000e+00 0.000000e+00 0.000000e+00
         vertex 0.000000e+00 -2.364168e-02 -1.240811e-02
         vertex 0.000000e+00 -2.592415e-02 -6.389728e-03
      endloop
   endfacet
   facet normal -1.000000e+00 0.000000e+00 0.000000e+00
      outer loop
         vertex 0.000000e+00 3.218329e-03 -2.650533e-02
         vertex 0.000000e+00 -3.218329e-03 -2.650533e-02
         vertex 0.000000e+00 0.000000e+00 0.000000e+00
      endloop
   endfacet
   facet normal -1.000000e+00 0.000000e+00 0.000000e+00
      outer loop
         vertex 0.000000e+00 0.000000e+00 0.000000e+00
         vertex 0.000000e+00 -3.218329e-03 -2.650533e-02
         vertex 0.000000e+00 -9.467950e-03 -2.496493e-02
      endloop
   endfacet
   facet normal -1.000000e+00 0.000000e+00 0.000000e+00
      outer loop
         vertex 0.000000e+00 0.000000e+00 0.000000e+00
         vertex 0.000000e+00 -9.467950e-03 -2.496493e-02
         vertex 0.000000e+00 -1.516733e-02 -2.197367e-02
      endloop
   endfacet
   facet normal -1.000000e+00 0.000000e+00 0.000000e+00
      outer loop
         vertex 0.000000e+00 1.998524e-02 -1.770538e-02
         vertex 0.000000e+00 1.516733e-02 -2.197367e-02
         vertex 0.000000e+00 0.000000e+00 0.000000e+00
      endloop
   endfacet
   facet normal -1.000000e+00 0.000000e+00 0.000000e+00
      outer loop
         vertex 0.000000e+00 0.000000e+00 0.000000e+00
         vertex 0.000000e+00 1.516733e-02 -2.197367e-02
         vertex 0.000000e+00 9.467950e-03 -2.496493e-02
      endloop
   endfacet
   facet normal -1.000000e+00 0.000000e+00 0.000000e+00
      outer loop
         vertex 0.000000e+00 0.000000e+00 0.000000e+00
         vertex 0.000000e+00 9.467950e-03 -2.496493e-02
         vertex 0.000000e+00 3.218329e-03 -2.650533e-02
      endloop
   endfacet
   facet normal -1.000000e+00 0.000000e+00 0.000000e+00
      outer loop
         vertex 0.000000e+00 2.670000e-02 0.000000e+00
         vertex 0.000000e+00 2.592415e-02 -6.389728e-03
         vertex 0.000000e+00 0.000000e+00 0.000000e+00
      endloop
   endfacet
   facet normal -1.000000e+00 0.000000e+00 0.000000e+00
      outer loop
         vertex 0.000000e+00 0.000000e+00 0.000000e+00
         vertex 0.000000e+00 2.592415e-02 -6.389728e-03
         vertex 0.000000e+00 2.364168e-02 -1.240811e-02
      endloop
   endfacet
   facet normal -1.000000e+00 0.000000e+00 0.000000e+00
      outer loop
         vertex 0.000000e+00 0.000000e+00 0.000000e+00
         vertex 0.000000e+00 2.364168e-02 -1.240811e-02
         vertex 0.000000e+00 1.998524e-02 -1.770538e-02
      endloop
   endfacet
   facet normal -1.000000e+00 0.000000e+00 0.000000e+00
      outer loop
         vertex 0.000000e+00 1.998524e-02 1.770538e-02
         vertex 0.000000e+00 2.364168e-02 1.240811e-02
         vertex 0.000000e+00 0.000000e+00 0.000000e+00
      endloop
   endfacet
   facet normal -1.000000e+00 0.000000e+00 0.000000e+00
      outer loop
         vertex 0.000000e+00 0.000000e+00 0.000000e+00
         vertex 0.000000e+00 2.364168e-02 1.240811e-02
         vertex 0.000000e+00 2.592415e-02 6.389728e-03
      endloop
   endfacet
   facet normal -1.000000e+00 0.000000e+00 -0.000000e+00
      outer loop
         vertex 0.000000e+00 0.000000e+00 0.000000e+00
         vertex 0.000000e+00 2.592415e-02 6.389728e-03
         vertex 0.000000e+00 2.670000e-02 0.000000e+00
      endloop
   endfacet
   facet normal -1.000000e+00 0.000000e+00 0.000000e+00
      outer loop
         vertex 0.000000e+00 3.218329e-03 2.650533e-02
         vertex 0.000000e+00 9.467950e-03 2.496493e-02
         vertex 0.000000e+00 0.000000e+00 0.000000e+00
      endloop
   endfacet
   facet normal -1.000000e+00 0.000000e+00 0.000000e+00
      outer loop
         vertex 0.000000e+00 0.000000e+00 0.000000e+00
         vertex 0.000000e+00 9.467950e-03 2.496493e-02
         vertex 0.000000e+00 1.516733e-02 2.197367e-02
      endloop
   endfacet
   facet normal -1.000000e+00 0.000000e+00 0.000000e+00
      outer loop
         vertex 0.000000e+00 0.000000e+00 0.000000e+00
         vertex 0.000000e+00 1.516733e-02 2.197367e-02
         vertex 0.000000e+00 1.998524e-02 1.770538e-02
      endloop
   endfacet
   facet normal -1.000000e+00 0.000000e+00 -0.000000e+00
      outer loop
         vertex 0.000000e+00 -1.516733e-02 2.197367e-02
         vertex 0.000000e+00 -9.467950e-03 2.496493e-02
         vertex 0.000000e+00 0.000000e+00 0.000000e+00
      endloop
   endfacet
   facet normal -1.000000e+00 0.000000e+00 0.000000e+00
      outer loop
         vertex 0.000000e+00 0.000000e+00 0.000000e+00
         vertex 0.000000e+00 -9.467950e-03 2.496493e-02
         vertex 0.000000e+00 -3.218329e-03 2.650533e-02
      endloop
   endfacet
   facet normal -1.000000e+00 -0.000000e+00 0.000000e+00
      outer loop
         vertex 0.000000e+00 0.000000e+00 0.000000e+00
         vertex 0.000000e+00 -3.218329e-03 2.650533e-02
         vertex 0.000000e+00 3.218329e-03 2.650533e-02
      endloop
   endfacet
   facet normal -1.000000e+00 0.000000e+00 -0.000000e+00
      outer loop
         vertex 0.000000e+00 -2.592415e-02 6.389728e-03
         vertex 0.000000e+00 -2.364168e-02 1.240811e-02
         vertex 0.000000e+00 0.000000e+00 0.000000e+00
      endloop
   endfacet
   facet normal -1.000000e+00 0.000000e+00 0.000000e+00
      outer loop
         vertex 0.000000e+00 0.000000e+00 0.000000e+00
         vertex 0.000000e+00 -2.364168e-02 1.240811e-02
         vertex 0.000000e+00 -1.998524e-02 1.770538e-02
      endloop
   endfacet
   facet normal -1.000000e+00 0.000000e+00 0.000000e+00
      outer loop
         vertex 0.000000e+00 0.000000e+00 0.000000e+00
         vertex 0.000000e+00 -1.998524e-02 1.770538e-02
         vertex 0.000000e+00 -1.516733e-02 2.197367e-02
      endloop
   endfacet
endsolid