# Blender v2.81 (sub 16) OBJ File: 'verre1.blend'
# www.blender.org
mtllib verre1.mtl
o Plane
v 0.362708 -1.326281 -0.068215
v 1.894462 -1.305730 -0.068215
v 1.812259 -1.079672 -0.068215
v 0.353157 -0.935817 -0.068215
v 0.332607 1.263111 -0.068215
v 0.949129 1.530271 -0.068215
v 1.565650 2.044039 -0.068215
v 1.668404 2.907170 -0.068215
v 0.339054 -1.326281 -0.039993
v 1.795839 -1.305730 0.433346
v 1.717659 -1.079672 0.407943
v 0.329971 -0.935817 -0.042944
v 0.310426 1.263111 -0.049294
v 0.896773 1.530271 0.141222
v 1.483120 2.044039 0.331738
v 1.580844 2.907170 0.363490
v 0.307836 -1.326281 -0.020461
v 1.547051 -1.305730 0.879882
v 1.480548 -1.079672 0.831564
v 0.300109 -0.935817 -0.026074
v 0.283483 1.263111 -0.038153
v 0.782260 1.530271 0.324229
v 1.281037 2.044039 0.686612
v 1.364166 2.907170 0.747009
v 0.272110 -1.326281 -0.011531
v 1.172453 -1.305730 1.227684
v 1.124135 -1.079672 1.161180
v 0.266497 -0.935817 -0.019258
v 0.254417 1.263111 -0.035884
v 0.616799 1.530271 0.462893
v 0.979182 2.044039 0.961670
v 1.039579 2.907170 1.044799
v 0.235374 -1.326281 -0.014079
v 0.708712 -1.305730 1.442706
v 0.683310 -1.079672 1.364526
v 0.232423 -0.935817 -0.023162
v 0.226072 1.263111 -0.042707
v 0.416588 1.530271 0.543640
v 0.607103 2.044039 1.129987
v 0.638856 2.907170 1.227712
v 0.201223 -1.326281 -0.027854
v 0.201223 -1.305730 1.503900
v 0.201223 -1.079672 1.421697
v 0.201223 -0.935817 -0.037405
v 0.201223 1.263111 -0.057956
v 0.201223 1.530271 0.558566
v 0.201223 2.044039 1.175088
v 0.201223 2.907170 1.277842
v 0.173000 -1.326281 -0.051509
v -0.300338 -1.305730 1.405277
v -0.274936 -1.079672 1.327097
v 0.175952 -0.935817 -0.060592
v 0.182302 1.263111 -0.080137
v -0.008214 1.530271 0.506210
v -0.198730 2.044039 1.092558
v -0.230483 2.907170 1.190282
v 0.153469 -1.326281 -0.082726
v -0.746874 -1.305730 1.156489
v -0.698557 -1.079672 1.089985
v 0.159082 -0.935817 -0.090453
v 0.171161 1.263111 -0.107079
v -0.191221 1.530271 0.391698
v -0.553604 2.044039 0.890474
v -0.614001 2.907170 0.973604
v 0.144539 -1.326281 -0.118452
v -1.094676 -1.305730 0.781891
v -1.028172 -1.079672 0.733573
v 0.152266 -0.935817 -0.124066
v 0.168892 1.263111 -0.136145
v -0.329885 1.530271 0.226237
v -0.828662 2.044039 0.588620
v -0.911791 2.907170 0.649017
v 0.147087 -1.326281 -0.155188
v -1.309698 -1.305730 0.318150
v -1.231518 -1.079672 0.292748
v 0.156170 -0.935817 -0.158140
v 0.175715 1.263111 -0.164490
v -0.410632 1.530271 0.026025
v -0.996980 2.044039 0.216541
v -1.094704 2.907170 0.248294
v 0.160862 -1.326281 -0.189339
v -1.370892 -1.305730 -0.189339
v -1.288689 -1.079672 -0.189339
v 0.170413 -0.935817 -0.189339
v 0.190964 1.263111 -0.189340
v -0.425558 1.530271 -0.189340
v -1.042081 2.044039 -0.189340
v -1.144834 2.907170 -0.189340
v 0.184516 -1.326281 -0.217562
v -1.272269 -1.305730 -0.690900
v -1.194089 -1.079672 -0.665498
v 0.193600 -0.935817 -0.214611
v 0.213145 1.263111 -0.208260
v -0.373203 1.530271 -0.398776
v -0.959550 2.044039 -0.589292
v -1.057274 2.907170 -0.621045
v 0.215734 -1.326281 -0.237094
v -1.023481 -1.305730 -1.137437
v -0.956978 -1.079672 -1.089119
v 0.223461 -0.935817 -0.231480
v 0.240087 1.263111 -0.219401
v -0.258690 1.530271 -0.581784
v -0.757467 2.044039 -0.944166
v -0.840596 2.907170 -1.004563
v 0.251460 -1.326281 -0.246023
v -0.648883 -1.305730 -1.485239
v -0.600565 -1.079672 -1.418735
v 0.257074 -0.935817 -0.238296
v 0.269153 1.263111 -0.221671
v -0.093229 1.530271 -0.720447
v -0.455612 2.044039 -1.219224
v -0.516009 2.907170 -1.302354
v 0.288196 -1.326281 -0.243475
v -0.185142 -1.305730 -1.700261
v -0.159740 -1.079672 -1.622081
v 0.291147 -0.935817 -0.234392
v 0.297498 1.263111 -0.214847
v 0.106982 1.530271 -0.801195
v -0.083533 2.044039 -1.387542
v -0.115286 2.907170 -1.485267
v 0.322347 -1.326281 -0.229700
v 0.322347 -1.305730 -1.761455
v 0.322347 -1.079672 -1.679252
v 0.322347 -0.935817 -0.220149
v 0.322347 1.263111 -0.199599
v 0.322347 1.530271 -0.816121
v 0.322347 2.044039 -1.432643
v 0.322348 2.907170 -1.535397
v 0.350570 -1.326281 -0.206046
v 0.823908 -1.305730 -1.662831
v 0.798506 -1.079672 -1.584652
v 0.347619 -0.935817 -0.196963
v 0.341268 1.263111 -0.177418
v 0.531784 1.530271 -0.763765
v 0.722300 2.044039 -1.350113
v 0.754053 2.907170 -1.447837
v 0.370102 -1.326281 -0.174828
v 1.270445 -1.305730 -1.414044
v 1.222127 -1.079672 -1.347540
v 0.364488 -0.935817 -0.167102
v 0.352409 1.263111 -0.150475
v 0.714791 1.530271 -0.649252
v 1.077174 2.044039 -1.148029
v 1.137571 2.907170 -1.231158
v 0.379031 -1.326281 -0.139103
v 1.618247 -1.305730 -1.039445
v 1.551743 -1.079672 -0.991128
v 0.371304 -0.935817 -0.133489
v 0.354679 1.263111 -0.121409
v 0.853455 1.530271 -0.483792
v 1.352232 2.044039 -0.846174
v 1.435362 2.907170 -0.906571
v 0.376483 -1.326281 -0.102366
v 1.833269 -1.305730 -0.575705
v 1.755089 -1.079672 -0.550303
v 0.367400 -0.935817 -0.099415
v 0.347855 1.263111 -0.093064
v 0.934203 1.530271 -0.283580
v 1.520550 2.044039 -0.474096
v 1.618275 2.907170 -0.505848
v 0.362708 -1.326281 -0.068215
v 1.894463 -1.305730 -0.068215
v 1.812260 -1.079672 -0.068215
v 0.353157 -0.935817 -0.068215
v 0.332607 1.263111 -0.068215
v 0.949129 1.530271 -0.068215
v 1.565651 2.044039 -0.068215
v 1.668405 2.907170 -0.068215
vn 0.8727 -0.4523 0.1838
vn 0.9730 -0.1166 0.1990
vn 0.9299 -0.1181 0.3482
vn 0.8289 -0.4618 0.3155
vn 0.6449 0.7533 0.1294
vn 0.4528 0.7948 0.4039
vn 0.4325 0.7131 0.5517
vn 0.6041 0.7645 0.2246
vn 0.6162 -0.6545 0.4380
vn 0.5532 -0.5763 0.6015
vn 0.5297 -0.8373 0.1350
vn 0.4919 -0.8440 0.2137
vn 0.0132 -0.9999 0.0031
vn 0.8393 -0.5176 0.1662
vn 0.7943 -0.5332 0.2911
vn 0.0122 -0.9999 0.0056
vn 0.3403 -0.5763 0.7430
vn 0.2409 0.7131 0.6583
vn 0.4018 -0.8440 0.3552
vn 0.6655 -0.5332 0.5223
vn 0.0099 -0.9999 0.0091
vn 0.6909 -0.4618 0.5562
vn 0.5051 0.7645 0.4003
vn 0.7768 -0.1181 0.6185
vn 0.2723 -0.8440 0.4620
vn 0.0940 -0.5763 0.8118
vn 0.4715 -0.5332 0.7024
vn 0.0066 -0.9999 0.0117
vn 0.4852 -0.4618 0.7425
vn 0.3567 0.7645 0.5368
vn 0.5476 -0.1181 0.8283
vn 0.0256 0.7131 0.7005
vn 0.2320 -0.4618 0.8561
vn 0.1162 -0.8440 0.5235
vn 0.1733 0.7645 0.6208
vn 0.2314 -0.5332 0.8137
vn 0.2649 -0.1181 0.9570
vn -0.1921 0.7131 0.6742
vn -0.1614 -0.5763 0.8011
vn 0.0026 -0.9999 0.0132
vn -0.0438 -0.1181 0.9920
vn -0.0439 -0.4618 0.8859
vn -0.3910 0.7131 0.5818
vn -0.0269 0.7645 0.6440
vn -0.4011 -0.5763 0.7120
vn -0.0512 -0.8440 0.5339
vn -0.0314 -0.5332 0.8454
vn -0.0016 -0.9999 0.0134
vn -0.6015 -0.5763 0.5532
vn -0.5517 0.7131 0.4325
vn -0.2137 -0.8440 0.4919
vn -0.2911 -0.5332 0.7943
vn -0.0056 -0.9999 0.0122
vn -0.3155 -0.4618 0.8289
vn -0.2246 0.7645 0.6041
vn -0.3482 -0.1181 0.9299
vn -0.3552 -0.8440 0.4018
vn -0.7430 -0.5763 0.3403
vn -0.5223 -0.5332 0.6655
vn -0.0091 -0.9999 0.0099
vn -0.5562 -0.4618 0.6909
vn -0.4003 0.7645 0.5051
vn -0.6185 -0.1181 0.7768
vn -0.6583 0.7131 0.2409
vn -0.7425 -0.4618 0.4852
vn -0.4620 -0.8440 0.2723
vn -0.5368 0.7645 0.3567
vn -0.7024 -0.5332 0.4715
vn -0.8283 -0.1181 0.5476
vn -0.7005 0.7131 0.0256
vn -0.8118 -0.5763 0.0940
vn -0.0117 -0.9999 0.0066
vn -0.9570 -0.1181 0.2649
vn -0.8561 -0.4618 0.2320
vn -0.6742 0.7131 -0.1921
vn -0.6208 0.7645 0.1733
vn -0.8011 -0.5763 -0.1614
vn -0.5235 -0.8440 0.1162
vn -0.8137 -0.5332 0.2314
vn -0.0132 -0.9999 0.0026
vn -0.7120 -0.5763 -0.4011
vn -0.5818 0.7131 -0.3910
vn -0.5339 -0.8440 -0.0512
vn -0.8454 -0.5332 -0.0314
vn -0.0134 -0.9999 -0.0016
vn -0.8859 -0.4618 -0.0439
vn -0.6440 0.7645 -0.0269
vn -0.9920 -0.1181 -0.0438
vn -0.4919 -0.8440 -0.2137
vn -0.5532 -0.5763 -0.6015
vn -0.7943 -0.5332 -0.2911
vn -0.0122 -0.9999 -0.0056
vn -0.8289 -0.4618 -0.3155
vn -0.6041 0.7645 -0.2246
vn -0.9299 -0.1181 -0.3482
vn -0.4325 0.7131 -0.5517
vn -0.6909 -0.4618 -0.5562
vn -0.4018 -0.8440 -0.3552
vn -0.5051 0.7645 -0.4003
vn -0.6655 -0.5332 -0.5223
vn -0.7768 -0.1181 -0.6185
vn -0.2409 0.7131 -0.6583
vn -0.3403 -0.5763 -0.7430
vn -0.0099 -0.9999 -0.0091
vn -0.5476 -0.1181 -0.8283
vn -0.4852 -0.4618 -0.7425
vn -0.0256 0.7131 -0.7005
vn -0.3567 0.7645 -0.5368
vn -0.0940 -0.5763 -0.8118
vn -0.2723 -0.8440 -0.4620
vn -0.4715 -0.5332 -0.7024
vn -0.0066 -0.9999 -0.0117
vn 0.1614 -0.5763 -0.8011
vn 0.1921 0.7131 -0.6742
vn -0.1162 -0.8440 -0.5235
vn -0.2314 -0.5332 -0.8137
vn -0.0026 -0.9999 -0.0132
vn -0.2320 -0.4618 -0.8561
vn -0.1733 0.7645 -0.6208
vn -0.2649 -0.1181 -0.9570
vn 0.0512 -0.8440 -0.5339
vn 0.4011 -0.5763 -0.7120
vn 0.0314 -0.5332 -0.8454
vn 0.0016 -0.9999 -0.0134
vn 0.0439 -0.4618 -0.8859
vn 0.0269 0.7645 -0.6440
vn 0.0438 -0.1181 -0.9920
vn 0.3910 0.7131 -0.5818
vn 0.3155 -0.4618 -0.8289
vn 0.2137 -0.8440 -0.4919
vn 0.2246 0.7645 -0.6041
vn 0.2911 -0.5332 -0.7943
vn 0.3482 -0.1181 -0.9299
vn 0.5517 0.7131 -0.4325
vn 0.6015 -0.5763 -0.5532
vn 0.0056 -0.9999 -0.0122
vn 0.6185 -0.1181 -0.7768
vn 0.5562 -0.4618 -0.6909
vn 0.6583 0.7131 -0.2409
vn 0.4003 0.7645 -0.5051
vn 0.7430 -0.5763 -0.3403
vn 0.3552 -0.8440 -0.4018
vn 0.5223 -0.5332 -0.6655
vn 0.0091 -0.9999 -0.0099
vn 0.8118 -0.5763 -0.0940
vn 0.7005 0.7131 -0.0256
vn 0.4620 -0.8440 -0.2723
vn 0.7024 -0.5332 -0.4715
vn 0.0117 -0.9999 -0.0066
vn 0.7425 -0.4618 -0.4852
vn 0.5368 0.7645 -0.3567
vn 0.8283 -0.1181 -0.5476
vn 0.5235 -0.8440 -0.1162
vn 0.8011 -0.5763 0.1614
vn 0.8137 -0.5332 -0.2314
vn 0.0132 -0.9999 -0.0026
vn 0.8561 -0.4618 -0.2320
vn 0.6208 0.7645 -0.1733
vn 0.9570 -0.1181 -0.2649
vn 0.6742 0.7131 0.1921
vn 0.8818 -0.4621 -0.0941
vn 0.5342 -0.8447 -0.0323
vn 0.6364 0.7678 -0.0741
vn 0.8364 -0.5389 -0.0997
vn 0.9869 -0.1166 -0.1114
vn 0.7425 0.5669 0.3566
vn 0.8326 -0.4420 0.3338
vn 0.0136 -0.9999 -0.0012
usemtl Material.001
s 1
f 7//1 8//2 16//3 15//4
f 3//5 4//6 12//7 11//8
f 4//6 5//9 13//10 12//7
f 5//9 6//11 14//12 13//10
f 1//13 2//14 10//15 9//16
f 6//11 7//1 15//4 14//12
f 2//14 3//5 11//8 10//15
f 12//7 13//10 21//17 20//18
f 13//10 14//12 22//19 21//17
f 9//16 10//15 18//20 17//21
f 14//12 15//4 23//22 22//19
f 10//15 11//8 19//23 18//20
f 15//4 16//3 24//24 23//22
f 11//8 12//7 20//18 19//23
f 21//17 22//19 30//25 29//26
f 17//21 18//20 26//27 25//28
f 22//19 23//22 31//29 30//25
f 18//20 19//23 27//30 26//27
f 23//22 24//24 32//31 31//29
f 19//23 20//18 28//32 27//30
f 20//18 21//17 29//26 28//32
f 30//25 31//29 39//33 38//34
f 26//27 27//30 35//35 34//36
f 31//29 32//31 40//37 39//33
f 27//30 28//32 36//38 35//35
f 28//32 29//26 37//39 36//38
f 29//26 30//25 38//34 37//39
f 25//28 26//27 34//36 33//40
f 39//33 40//37 48//41 47//42
f 35//35 36//38 44//43 43//44
f 36//38 37//39 45//45 44//43
f 37//39 38//34 46//46 45//45
f 33//40 34//36 42//47 41//48
f 38//34 39//33 47//42 46//46
f 34//36 35//35 43//44 42//47
f 44//43 45//45 53//49 52//50
f 45//45 46//46 54//51 53//49
f 41//48 42//47 50//52 49//53
f 46//46 47//42 55//54 54//51
f 42//47 43//44 51//55 50//52
f 47//42 48//41 56//56 55//54
f 43//44 44//43 52//50 51//55
f 53//49 54//51 62//57 61//58
f 49//53 50//52 58//59 57//60
f 54//51 55//54 63//61 62//57
f 50//52 51//55 59//62 58//59
f 55//54 56//56 64//63 63//61
f 51//55 52//50 60//64 59//62
f 52//50 53//49 61//58 60//64
f 62//57 63//61 71//65 70//66
f 58//59 59//62 67//67 66//68
f 63//61 64//63 72//69 71//65
f 59//62 60//64 68//70 67//67
f 60//64 61//58 69//71 68//70
f 61//58 62//57 70//66 69//71
f 57//60 58//59 66//68 65//72
f 71//65 72//69 80//73 79//74
f 67//67 68//70 76//75 75//76
f 68//70 69//71 77//77 76//75
f 69//71 70//66 78//78 77//77
f 65//72 66//68 74//79 73//80
f 70//66 71//65 79//74 78//78
f 66//68 67//67 75//76 74//79
f 76//75 77//77 85//81 84//82
f 77//77 78//78 86//83 85//81
f 73//80 74//79 82//84 81//85
f 78//78 79//74 87//86 86//83
f 74//79 75//76 83//87 82//84
f 79//74 80//73 88//88 87//86
f 75//76 76//75 84//82 83//87
f 85//81 86//83 94//89 93//90
f 81//85 82//84 90//91 89//92
f 86//83 87//86 95//93 94//89
f 82//84 83//87 91//94 90//91
f 87//86 88//88 96//95 95//93
f 83//87 84//82 92//96 91//94
f 84//82 85//81 93//90 92//96
f 94//89 95//93 103//97 102//98
f 90//91 91//94 99//99 98//100
f 95//93 96//95 104//101 103//97
f 91//94 92//96 100//102 99//99
f 92//96 93//90 101//103 100//102
f 93//90 94//89 102//98 101//103
f 89//92 90//91 98//100 97//104
f 103//97 104//101 112//105 111//106
f 99//99 100//102 108//107 107//108
f 100//102 101//103 109//109 108//107
f 101//103 102//98 110//110 109//109
f 97//104 98//100 106//111 105//112
f 102//98 103//97 111//106 110//110
f 98//100 99//99 107//108 106//111
f 108//107 109//109 117//113 116//114
f 109//109 110//110 118//115 117//113
f 105//112 106//111 114//116 113//117
f 110//110 111//106 119//118 118//115
f 106//111 107//108 115//119 114//116
f 111//106 112//105 120//120 119//118
f 107//108 108//107 116//114 115//119
f 117//113 118//115 126//121 125//122
f 113//117 114//116 122//123 121//124
f 118//115 119//118 127//125 126//121
f 114//116 115//119 123//126 122//123
f 119//118 120//120 128//127 127//125
f 115//119 116//114 124//128 123//126
f 116//114 117//113 125//122 124//128
f 126//121 127//125 135//129 134//130
f 122//123 123//126 131//131 130//132
f 127//125 128//127 136//133 135//129
f 123//126 124//128 132//134 131//131
f 124//128 125//122 133//135 132//134
f 125//122 126//121 134//130 133//135
f 121//124 122//123 130//132 129//136
f 135//129 136//133 144//137 143//138
f 131//131 132//134 140//139 139//140
f 132//134 133//135 141//141 140//139
f 133//135 134//130 142//142 141//141
f 129//136 130//132 138//143 137//144
f 134//130 135//129 143//138 142//142
f 130//132 131//131 139//140 138//143
f 140//139 141//141 149//145 148//146
f 141//141 142//142 150//147 149//145
f 137//144 138//143 146//148 145//149
f 142//142 143//138 151//150 150//147
f 138//143 139//140 147//151 146//148
f 143//138 144//137 152//152 151//150
f 139//140 140//139 148//146 147//151
f 149//145 150//147 158//153 157//154
f 145//149 146//148 154//155 153//156
f 150//147 151//150 159//157 158//153
f 146//148 147//151 155//158 154//155
f 151//150 152//152 160//159 159//157
f 147//151 148//146 156//160 155//158
f 148//146 149//145 157//154 156//160
f 158//153 159//157 167//161 166//162
f 154//155 155//158 163//163 162//164
f 159//157 160//159 168//165 167//161
f 155//158 156//160 164//166 163//163
f 156//160 157//154 165//167 164//166
f 157//154 158//153 166//162 165//167
f 153//156 154//155 162//164 161//168
